<svg width="18" height="18" viewBox="0 0 18 18" fill="none" xmlns="http://www.w3.org/2000/svg">
<path d="M8.46737 9.00075L11.1224 6.34575C11.2621 6.20523 11.3405 6.01514 11.3405 5.817C11.3405 5.61887 11.2621 5.42878 11.1224 5.28825C11.0526 5.21796 10.9697 5.16216 10.8783 5.12409C10.7869 5.08601 10.6889 5.06641 10.5899 5.06641C10.4909 5.06641 10.3928 5.08601 10.3014 5.12409C10.21 5.16216 10.1271 5.21796 10.0574 5.28825L6.87737 8.46825C6.80707 8.53798 6.75127 8.62093 6.7132 8.71232C6.67512 8.80372 6.65552 8.90175 6.65552 9.00075C6.65552 9.09976 6.67512 9.19779 6.7132 9.28919C6.75127 9.38058 6.80707 9.46353 6.87737 9.53325L10.0574 12.7508C10.1274 12.8203 10.2106 12.8753 10.3019 12.9126C10.3933 12.9499 10.4912 12.9688 10.5899 12.9683C10.6886 12.9688 10.7864 12.9499 10.8778 12.9126C10.9692 12.8753 11.0523 12.8203 11.1224 12.7508C11.2621 12.6102 11.3405 12.4201 11.3405 12.222C11.3405 12.0239 11.2621 11.8338 11.1224 11.6933L8.46737 9.00075Z" fill="white"/>
</svg>
