<svg width="18" height="18" viewBox="0 0 18 18" fill="none" xmlns="http://www.w3.org/2000/svg">
<path fill-rule="evenodd" clip-rule="evenodd" d="M5.66667 5.5625L9 9L12.3333 5.5625L11.4 4.56562L9.66667 6.35312V0.75H8.33333V6.35312L6.6 4.56562L5.66667 5.5625ZM12.881 8.76429H10.4333L11.7917 7.35H12.881C13.0812 7.35 13.2716 7.38535 13.4531 7.45607C13.6346 7.52679 13.7941 7.62697 13.9316 7.75661L16.5 10.1786V15.8357C16.5 16.2246 16.3535 16.5577 16.0597 16.8349C15.766 17.1116 15.4128 17.25 15.0002 17.25H2.99984C2.58724 17.25 2.23486 17.1116 1.94108 16.8349C1.6473 16.5577 1.5 16.2246 1.5 15.8357V10.1786L4.06836 7.75661C4.20589 7.62697 4.3654 7.52679 4.54688 7.45607C4.72835 7.38535 4.91878 7.35 5.11898 7.35H6.20833L7.56667 8.76429H5.11898L3.61914 10.1786H14.3809L12.881 8.76429ZM15.0002 15.8357V11.5929H2.99984V15.8357H15.0002ZM12.75 14.775C13.0625 14.775 13.3278 14.6717 13.5467 14.4653C13.7656 14.2592 13.8747 14.0089 13.8747 13.7143C13.8747 13.4196 13.7656 13.1693 13.5467 12.9633C13.3278 12.7568 13.0625 12.6536 12.75 12.6536C12.4375 12.6536 12.1722 12.7568 11.9533 12.9633C11.7344 13.1693 11.6253 13.4196 11.6253 13.7143C11.6253 14.0089 11.7344 14.2592 11.9533 14.4653C12.0762 14.581 12.2137 14.6643 12.3659 14.7152C12.4847 14.7551 12.6125 14.775 12.75 14.775Z" fill="white"/>
</svg>
