<svg width="14" height="14" viewBox="0 0 14 14" fill="none" xmlns="http://www.w3.org/2000/svg">
<path d="M10.8625 13.525L6.325 8.95C6.075 9.05 5.822 9.125 5.566 9.175C5.3095 9.225 5.0375 9.25 4.75 9.25C3.5 9.25 2.4375 8.8125 1.5625 7.9375C0.6875 7.0625 0.25 6 0.25 4.75C0.25 4.3 0.3125 3.87175 0.4375 3.46525C0.5625 3.05925 0.7375 2.675 0.9625 2.3125L3.7 5.05L5.05 3.7L2.3125 0.9625C2.675 0.7375 3.05925 0.5625 3.46525 0.4375C3.87175 0.3125 4.3 0.25 4.75 0.25C6 0.25 7.0625 0.6875 7.9375 1.5625C8.8125 2.4375 9.25 3.5 9.25 4.75C9.25 5.0375 9.225 5.30925 9.175 5.56525C9.125 5.82175 9.05 6.075 8.95 6.325L13.525 10.8625C13.675 11.0125 13.75 11.1938 13.75 11.4062C13.75 11.6187 13.675 11.8 13.525 11.95L11.95 13.525C11.8 13.675 11.6187 13.75 11.4062 13.75C11.1938 13.75 11.0125 13.675 10.8625 13.525Z" fill="#3B414A"/>
</svg>
