<svg width="22" height="22" viewBox="0 0 22 22" fill="none" xmlns="http://www.w3.org/2000/svg">
<mask id="mask0_4311_66330" style="mask-type:alpha" maskUnits="userSpaceOnUse" x="0" y="0" width="22" height="22">
<rect width="22" height="22" fill="#D9D9D9"/>
</mask>
<g mask="url(#mask0_4311_66330)">
<path d="M4.86542 19.7099C4.40238 19.7099 4.01044 19.5495 3.68961 19.2286C3.36878 18.9078 3.20836 18.5159 3.20836 18.0528V5.78365C3.20836 5.32061 3.36878 4.92868 3.68961 4.60784C4.01044 4.28701 4.40238 4.12659 4.86542 4.12659H6.13466V2.1875H7.54488V4.12659H14.4904V2.1875H15.8653V4.12659H17.1346C17.5976 4.12659 17.9896 4.28701 18.3104 4.60784C18.6312 4.92868 18.7916 5.32061 18.7916 5.78365V18.0528C18.7916 18.5159 18.6312 18.9078 18.3104 19.2286C17.9896 19.5495 17.5976 19.7099 17.1346 19.7099H4.86542ZM4.86542 18.3349H17.1346C17.2051 18.3349 17.2698 18.3055 17.3285 18.2468C17.3873 18.188 17.4167 18.1233 17.4167 18.0528V9.45032H4.58334V18.0528C4.58334 18.1233 4.61271 18.188 4.67147 18.2468C4.73025 18.3055 4.79489 18.3349 4.86542 18.3349ZM4.58334 8.07534H17.4167V5.78365C17.4167 5.71313 17.3873 5.64848 17.3285 5.58971C17.2698 5.53095 17.2051 5.50157 17.1346 5.50157H4.86542C4.79489 5.50157 4.73025 5.53095 4.67147 5.58971C4.61271 5.64848 4.58334 5.71313 4.58334 5.78365V8.07534Z" fill="white" fill-opacity="0.7"/>
</g>
</svg>
