<svg width="20" height="20" viewBox="0 0 20 20" fill="none" xmlns="http://www.w3.org/2000/svg">
<path d="M8.76256 11.5126C8.43437 11.8408 8.25 12.2859 8.25 12.75C8.25 13.2141 8.43437 13.6592 8.76256 13.9874C9.09075 14.3156 9.53587 14.5 10 14.5C10.4641 14.5 10.9092 14.3156 11.2374 13.9874C11.5656 13.6592 11.75 13.2141 11.75 12.75C11.75 12.2859 11.5656 11.8408 11.2374 11.5126C10.9092 11.1844 10.4641 11 10 11C9.53587 11 9.09075 11.1844 8.76256 11.5126Z" fill="white" fill-opacity="0.7"/>
<path fill-rule="evenodd" clip-rule="evenodd" d="M18.5 13.923L16.423 16L18.5 18.077L17.077 19.5L15 17.423L12.923 19.5L11.5 18.077L13.577 16L11.5 13.923L12.923 12.5L15 14.577L17.077 12.5L18.5 13.923Z" fill="#FF9D82"/>
<path d="M2.5021 4.5021C2.18061 4.82359 2 5.25963 2 5.71429V6.85714C1.99981 7.2118 2.10963 7.55779 2.31432 7.84742C2.519 8.13705 2.80848 8.35607 3.14286 8.47429V10.2857C3.14286 12.1043 3.8653 13.8485 5.15127 15.1344C6.43723 16.4204 8.18137 17.1429 10 17.1429C10.3776 17.1429 10.7519 17.1117 11.1196 17.0509V15.7H10C8.48448 15.7 7.03103 14.898 5.95939 13.8263C4.88775 12.7547 4.79 11.8012 4.79 10.2857V8.57143H15.21V10.2857C15.21 11.6488 14.5 12.5 14.5 12.5H15L16.7652 11.4053C16.826 11.0376 16.8571 10.6633 16.8571 10.2857V8.47429C17.1915 8.35607 17.481 8.13705 17.6857 7.84742C17.8904 7.55779 18.0002 7.2118 18 6.85714V5.71429C18 5.25963 17.8194 4.82359 17.4979 4.5021C17.1764 4.18061 16.7404 4 16.2857 4H3.71429C3.25963 4 2.82359 4.18061 2.5021 4.5021Z" fill="white" fill-opacity="0.7"/>
</svg>
