<svg width="20" height="20" viewBox="0 0 20 20" fill="none" xmlns="http://www.w3.org/2000/svg">
<path d="M8.76256 11.5126C8.43437 11.8408 8.25 12.2859 8.25 12.75C8.25 13.2141 8.43437 13.6592 8.76256 13.9874C9.09075 14.3156 9.53587 14.5 10 14.5C10.4641 14.5 10.9092 14.3156 11.2374 13.9874C11.5656 13.6592 11.75 13.2141 11.75 12.75C11.75 12.2859 11.5656 11.8408 11.2374 11.5126C10.9092 11.1844 10.4641 11 10 11C9.53587 11 9.09075 11.1844 8.76256 11.5126Z" fill="white" fill-opacity="0.7"/>
<path fill-rule="evenodd" clip-rule="evenodd" d="M2.5021 4.5021C2.18061 4.82359 2 5.25963 2 5.71429V6.85714C1.99981 7.2118 2.10963 7.55779 2.31432 7.84742C2.519 8.13705 2.80848 8.35607 3.14286 8.47429V10.2857C3.14286 12.1043 3.8653 13.8485 5.15127 15.1344C6.43723 16.4204 8.18137 17.1429 10 17.1429C10.3367 17.1429 10.6708 17.1181 11 17.0696V15.5865C10.6721 15.6602 10.3376 15.7 10 15.7C8.48448 15.7 7.03103 14.898 5.95939 13.8263C4.88775 12.7547 4.79 11.8012 4.79 10.2857V8.57143H15.21V10C15.8219 10.0021 16.5 10 16.8531 10C16.8558 9.92157 16.8571 9.07874 16.8571 9V8.47429C17.1915 8.35607 17.481 8.13705 17.6857 7.84742C17.8904 7.55779 18.0002 7.2118 18 6.85714V5.71429C18 5.25963 17.8194 4.82359 17.4979 4.5021C17.1764 4.18061 16.7404 4 16.2857 4H3.71429C3.25963 4 2.82359 4.18061 2.5021 4.5021Z" fill="white" fill-opacity="0.7"/>
<g clip-path="url(#clip0_3401_33741)">
<path d="M19.1429 14.9375H18.7143V13.6719C18.7143 12.1988 17.4964 11 16 11C14.5036 11 13.2857 12.1988 13.2857 13.6719V14.9375H12.8571C12.3839 14.9375 12 15.3154 12 15.7812V19.1562C12 19.6221 12.3839 20 12.8571 20H19.1429C19.6161 20 20 19.6221 20 19.1562V15.7812C20 15.3154 19.6161 14.9375 19.1429 14.9375ZM17.2857 14.9375H14.7143V13.6719C14.7143 12.974 15.2911 12.4062 16 12.4062C16.7089 12.4062 17.2857 12.974 17.2857 13.6719V14.9375Z" fill="white" fill-opacity="0.7"/>
</g>
<defs>
<clipPath id="clip0_3401_33741">
<rect width="8" height="9" fill="white" transform="translate(12 11)"/>
</clipPath>
</defs>
</svg>
