<svg width="20" height="20" viewBox="0 0 20 20" fill="none" xmlns="http://www.w3.org/2000/svg">
<path d="M2 5.71429C2 5.25963 2.18061 4.82359 2.5021 4.5021C2.82359 4.18061 3.25963 4 3.71429 4H16.2857C16.7404 4 17.1764 4.18061 17.4979 4.5021C17.8194 4.82359 18 5.25963 18 5.71429V6.85714C18.0002 7.2118 17.8904 7.55779 17.6857 7.84742C17.481 8.13705 17.1915 8.35607 16.8571 8.47429V10.2857C16.8571 12.1043 16.1347 13.8485 14.8487 15.1344C13.5628 16.4204 11.8186 17.1429 10 17.1429C8.18137 17.1429 6.43723 16.4204 5.15127 15.1344C3.8653 13.8485 3.14286 12.1043 3.14286 10.2857V8.47429C2.80848 8.35607 2.519 8.13705 2.31432 7.84742C2.10963 7.55779 1.99981 7.2118 2 6.85714V5.71429ZM4.79 8.57143V10.2857C4.79 11.8012 4.88775 12.7547 5.95939 13.8263C7.03103 14.898 8.48448 15.7 10 15.7C11.5155 15.7 12.969 14.898 14.0406 13.8263C15.1122 12.7547 15.21 11.8012 15.21 10.2857V8.57143H4.79Z" fill="#DBDFDE"/>
<path d="M8.76256 11.5126C8.43437 11.8408 8.25 12.2859 8.25 12.75C8.25 13.2141 8.43437 13.6592 8.76256 13.9874C9.09075 14.3156 9.53587 14.5 10 14.5C10.4641 14.5 10.9092 14.3156 11.2374 13.9874C11.5656 13.6592 11.75 13.2141 11.75 12.75C11.75 12.2859 11.5656 11.8408 11.2374 11.5126C10.9092 11.1844 10.4641 11 10 11C9.53587 11 9.09075 11.1844 8.76256 11.5126Z" fill="#DBDFDE"/>
</svg>
