<svg width="14" height="14" viewBox="0 0 14 14" fill="none" xmlns="http://www.w3.org/2000/svg">
<path d="M5.94998 9.89035L10.9923 4.84806L10.2019 4.05769L5.94998 8.30961L3.81248 6.17211L3.02211 6.96248L5.94998 9.89035ZM1.98078 13.375C1.60193 13.375 1.28125 13.2437 1.01875 12.9812C0.75625 12.7187 0.625 12.398 0.625 12.0192V1.98077C0.625 1.60192 0.75625 1.28125 1.01875 1.01875C1.28125 0.75625 1.60193 0.625 1.98078 0.625H12.0192C12.398 0.625 12.7187 0.75625 12.9812 1.01875C13.2437 1.28125 13.375 1.60192 13.375 1.98077V12.0192C13.375 12.398 13.2437 12.7187 12.9812 12.9812C12.7187 13.2437 12.398 13.375 12.0192 13.375H1.98078ZM1.98078 12.25H12.0192C12.0769 12.25 12.1298 12.2259 12.1779 12.1779C12.2259 12.1298 12.25 12.0769 12.25 12.0192V1.98077C12.25 1.92307 12.2259 1.87018 12.1779 1.82209C12.1298 1.77402 12.0769 1.74998 12.0192 1.74998H1.98078C1.92308 1.74998 1.87018 1.77402 1.82209 1.82209C1.77402 1.87018 1.74998 1.92307 1.74998 1.98077V12.0192C1.74998 12.0769 1.77402 12.1298 1.82209 12.1779C1.87018 12.2259 1.92308 12.25 1.98078 12.25Z" fill="white"/>
</svg>
