<svg width="18" height="18" viewBox="0 0 18 18" fill="none" xmlns="http://www.w3.org/2000/svg">
<g id="Leading Icon">
<mask id="mask0_6579_57986" style="mask-type:alpha" maskUnits="userSpaceOnUse" x="0" y="0" width="18" height="18">
<rect id="Bounding box" width="18" height="18" fill="#D9D9D9"/>
</mask>
<g mask="url(#mask0_6579_57986)">
<path id="schedule" d="M11.6048 12.3952L12.3952 11.6048L9.56246 8.77192V5.24998H8.4375V9.22787L11.6048 12.3952ZM9.00124 16.125C8.01579 16.125 7.08951 15.938 6.22241 15.564C5.3553 15.19 4.60104 14.6824 3.95963 14.0413C3.3182 13.4001 2.81041 12.6462 2.43624 11.7795C2.06208 10.9128 1.875 9.98669 1.875 9.00124C1.875 8.01579 2.062 7.08951 2.436 6.22241C2.81 5.3553 3.31756 4.60104 3.95869 3.95963C4.59983 3.3182 5.35376 2.81041 6.22048 2.43624C7.08719 2.06208 8.01328 1.875 8.99873 1.875C9.98418 1.875 10.9105 2.062 11.7776 2.436C12.6447 2.81 13.3989 3.31756 14.0403 3.95869C14.6818 4.59983 15.1896 5.35376 15.5637 6.22048C15.9379 7.08719 16.125 8.01328 16.125 8.99873C16.125 9.98418 15.938 10.9104 15.564 11.7776C15.19 12.6447 14.6824 13.3989 14.0413 14.0403C13.4001 14.6818 12.6462 15.1896 11.7795 15.5637C10.9128 15.9379 9.98669 16.125 9.00124 16.125ZM8.99998 15C10.6625 15 12.0781 14.4156 13.2469 13.2469C14.4156 12.0781 15 10.6625 15 8.99998C15 7.33748 14.4156 5.92186 13.2469 4.75311C12.0781 3.58436 10.6625 2.99998 8.99998 2.99998C7.33748 2.99998 5.92186 3.58436 4.75311 4.75311C3.58436 5.92186 2.99998 7.33748 2.99998 8.99998C2.99998 10.6625 3.58436 12.0781 4.75311 13.2469C5.92186 14.4156 7.33748 15 8.99998 15Z" fill="white"/>
</g>
</g>
</svg>
