<svg width="18" height="18" viewBox="0 0 18 18" fill="none" xmlns="http://www.w3.org/2000/svg">
<mask id="mask0_3950_8679" style="mask-type:alpha" maskUnits="userSpaceOnUse" x="0" y="0" width="18" height="18">
<rect width="18" height="18" fill="#D9D9D9"/>
</mask>
<g mask="url(#mask0_3950_8679)">
<path d="M6 13.5H12V12H6V13.5ZM6 10.5H12V9H6V10.5ZM4.5 16.5C4.0875 16.5 3.7345 16.3533 3.441 16.0597C3.147 15.7657 3 15.4125 3 15V3C3 2.5875 3.147 2.23425 3.441 1.94025C3.7345 1.64675 4.0875 1.5 4.5 1.5H10.5L15 6V15C15 15.4125 14.8533 15.7657 14.5597 16.0597C14.2657 16.3533 13.9125 16.5 13.5 16.5H4.5ZM9.75 6.75V3H4.5V15H13.5V6.75H9.75Z" fill="white"/>
</g>
</svg>
