<svg width="18" height="18" viewBox="0 0 18 18" fill="none" xmlns="http://www.w3.org/2000/svg">
<mask id="mask0_5026_68780" style="mask-type:alpha" maskUnits="userSpaceOnUse" x="0" y="0" width="18" height="18">
<rect width="18" height="18" fill="#D9D9D9"/>
</mask>
<g mask="url(#mask0_5026_68780)">
<path d="M4.73053 16.125C4.35168 16.125 4.03101 15.9937 3.76851 15.7312C3.50601 15.4687 3.37476 15.148 3.37476 14.7692V3.23077C3.37476 2.85192 3.50601 2.53125 3.76851 2.26875C4.03101 2.00625 4.35168 1.875 4.73053 1.875H10.6873L14.6247 5.81246V14.7692C14.6247 15.148 14.4935 15.4687 14.231 15.7312C13.9685 15.9937 13.6478 16.125 13.2689 16.125H4.73053ZM10.1248 6.37496V2.99998H4.73053C4.67283 2.99998 4.61994 3.02402 4.57185 3.07209C4.52377 3.12018 4.49974 3.17307 4.49974 3.23077V14.7692C4.49974 14.8269 4.52377 14.8798 4.57185 14.9279C4.61994 14.9759 4.67283 15 4.73053 15H13.2689C13.3266 15 13.3795 14.9759 13.4276 14.9279C13.4757 14.8798 13.4997 14.8269 13.4997 14.7692V6.37496H10.1248Z" fill="white"/>
<path d="M8.55283 8.39426H9.67779V11.7203L11.0538 10.3443L11.8557 11.1346L9.11531 13.875L6.37494 11.1346L7.16531 10.3327L8.55283 11.7203V8.39426Z" fill="white"/>
</g>
</svg>
