<svg width="23" height="22" viewBox="0 0 23 22" fill="none" xmlns="http://www.w3.org/2000/svg">
<mask id="mask0_5255_41204" style="mask-type:alpha" maskUnits="userSpaceOnUse" x="0" y="0" width="23" height="22">
<rect x="0.666748" width="22" height="22" fill="#D9D9D9"/>
</mask>
<g mask="url(#mask0_5255_41204)">
<path d="M5.39107 17.4161H6.52455L15.0126 8.92809L13.8791 7.79459L5.39107 16.2826V17.4161ZM17.9529 7.93387L14.8592 4.86838L16.0544 3.67321C16.3235 3.40409 16.6508 3.26953 17.0363 3.26953C17.4217 3.26953 17.749 3.40409 18.0181 3.67321L19.134 4.78904C19.4031 5.05816 19.5424 5.38075 19.5518 5.75681C19.5612 6.13288 19.4313 6.45547 19.1622 6.72459L17.9529 7.93387ZM16.9587 8.94219L7.1098 18.7911H4.01611V15.6974L13.865 5.84848L16.9587 8.94219Z" fill="white"/>
</g>
</svg>
