<svg width="22" height="22" viewBox="0 0 22 22" fill="none" xmlns="http://www.w3.org/2000/svg">
<path d="M12.0821 16L18.2023 9.87983C18.9173 9.16574 18.9173 8.00158 18.2023 7.28749L13.6639 2.75C13.3197 2.40697 12.8536 2.21436 12.3677 2.21436C11.8818 2.21436 11.4157 2.40697 11.0715 2.75L12.0821 16ZM12.0821 16H11.5821V16.5L11.9357 16.8535L12.2892 16.5H17.4603L12.0821 16ZM6.66547 17.7118L6.66483 17.7112L2.72534 13.7717C2.72515 13.7715 2.72496 13.7713 2.72477 13.7711C2.47733 13.5216 2.33781 13.1849 2.33632 12.8334C2.33482 12.4819 2.47152 12.1439 2.71694 11.8923C2.71707 11.8922 2.7172 11.892 2.71733 11.8919L7.07253 7.45518L11.4245 3.10413C11.4246 3.10406 11.4246 3.10399 11.4247 3.10391C11.6751 2.85444 12.0142 2.71436 12.3677 2.71436C12.7213 2.71436 13.0604 2.8545 13.3108 3.10407C13.3108 3.10409 13.3109 3.10411 13.3109 3.10413L17.8488 7.64108L17.8489 7.64127C18.3684 8.16004 18.3684 9.00728 17.8489 9.52605L17.8487 9.52627L11.2286 16.1464L10.375 17H11.5821H17.4603V17.8333L6.95936 17.8333L6.95863 17.8333C6.90417 17.8334 6.85023 17.8227 6.79992 17.8019C6.7496 17.781 6.70391 17.7504 6.66547 17.7118ZM12.7212 3.69261L12.3677 3.33905L12.0141 3.69261L9.64364 6.06311L9.29008 6.41666L9.64364 6.77022L14.1811 11.3077L14.5347 11.6613L14.8882 11.3077L17.2587 8.93721L17.6123 8.58366L17.2587 8.23011L12.7212 3.69261ZM9.05458 7.35927L8.70126 7.00596L8.34771 7.35904L7.66663 8.0392L7.66661 8.03919L7.66312 8.04274L3.31079 12.4767L2.96385 12.8301L3.31397 13.1804L6.98522 16.8535L7.13168 17H7.33886H8.99802H9.24079L9.39093 16.8092C9.39954 16.7983 9.40866 16.7878 9.41826 16.7777L13.5921 12.6039L13.9456 12.2503L13.5921 11.8968L9.05458 7.35927Z" fill="black" stroke="white"/>
</svg>
