<svg width="22" height="22" viewBox="0 0 22 22" fill="none" xmlns="http://www.w3.org/2000/svg">
<path d="M11.5821 17H17.4603V17.8333L6.95936 17.8333L6.95864 17.8333C6.90417 17.8334 6.85023 17.8227 6.79992 17.8019C6.7496 17.781 6.70391 17.7504 6.66547 17.7118L6.66483 17.7112L2.72534 13.7717C2.72515 13.7715 2.72496 13.7713 2.72477 13.7711C2.47733 13.5216 2.33781 13.1849 2.33632 12.8334C2.33482 12.482 2.47148 12.1441 2.71682 11.8924C2.71699 11.8923 2.71716 11.8921 2.71733 11.8919L7.07255 7.45516L11.4245 3.10413C11.4246 3.10399 11.4248 3.10385 11.4249 3.10371C11.6753 2.85436 12.0143 2.71436 12.3677 2.71436C12.7211 2.71436 13.0602 2.85441 13.3106 3.10385C13.3107 3.10394 13.3108 3.10404 13.3109 3.10413L17.8488 7.64108L17.8489 7.64127C18.3684 8.16004 18.3684 9.00728 17.8489 9.52605L17.8487 9.52627L11.2286 16.1464L10.375 17H11.5821ZM12.7212 3.69261L12.3677 3.33905L12.0141 3.69261L9.64364 6.06311L9.29008 6.41666L9.64364 6.77022L14.1811 11.3077L14.5347 11.6613L14.8882 11.3077L17.2587 8.93721L17.6123 8.58366L17.2587 8.23011L12.7212 3.69261ZM7.66663 8.0392L7.66661 8.03919L7.66312 8.04274L3.31079 12.4767L2.96385 12.8301L3.31397 13.1804L6.98522 16.8535L7.13168 17H7.33886H8.99802H9.24078L9.39092 16.8092C9.39953 16.7983 9.40865 16.7878 9.41825 16.7777L13.5921 12.6039L13.9456 12.2503L13.5921 11.8968L9.05458 7.35927L8.70126 7.00596L8.34771 7.35904L7.66663 8.0392Z" fill="black" stroke="white"/>
</svg>
