<svg width="20" height="19" viewBox="0 0 20 19" fill="none" xmlns="http://www.w3.org/2000/svg">
<path d="M17 3.00002H10.72L10.4 2.00002C10.1926 1.41325 9.80775 0.905526 9.2989 0.547183C8.79005 0.188841 8.18236 -0.0023769 7.56 2.23036e-05H3C2.20435 2.23036e-05 1.44129 0.316093 0.87868 0.878702C0.316071 1.44131 0 2.20437 0 3.00002V16C0 16.7957 0.316071 17.5587 0.87868 18.1213C1.44129 18.684 2.20435 19 3 19H17C17.7956 19 18.5587 18.684 19.1213 18.1213C19.6839 17.5587 20 16.7957 20 16V6.00002C20 5.20437 19.6839 4.44131 19.1213 3.8787C18.5587 3.31609 17.7956 3.00002 17 3.00002ZM18 16C18 16.2652 17.8946 16.5196 17.7071 16.7071C17.5196 16.8947 17.2652 17 17 17H3C2.73478 17 2.48043 16.8947 2.29289 16.7071C2.10536 16.5196 2 16.2652 2 16V3.00002C2 2.73481 2.10536 2.48045 2.29289 2.29292C2.48043 2.10538 2.73478 2.00002 3 2.00002H7.56C7.76964 1.99948 7.97416 2.06484 8.14463 2.18686C8.3151 2.30889 8.44291 2.4814 8.51 2.68002L9.05 4.32002C9.11709 4.51864 9.2449 4.69116 9.41537 4.81318C9.58584 4.9352 9.79036 5.00056 10 5.00002H17C17.2652 5.00002 17.5196 5.10538 17.7071 5.29292C17.8946 5.48045 18 5.73481 18 6.00002V16Z" fill="white"/>
</svg>
