<svg width="14" height="14" viewBox="0 0 14 14" fill="none" xmlns="http://www.w3.org/2000/svg">
<path d="M6.16675 13.6663C5.93064 13.6663 5.73286 13.5863 5.57342 13.4263C5.41342 13.2669 5.33342 13.0691 5.33342 12.833V7.83301L0.500086 1.66634C0.291752 1.38856 0.260641 1.0969 0.406752 0.791341C0.552308 0.485786 0.805641 0.333008 1.16675 0.333008H12.8334C13.1945 0.333008 13.4481 0.485786 13.5943 0.791341C13.7398 1.0969 13.7084 1.38856 13.5001 1.66634L8.66675 7.83301V12.833C8.66675 13.0691 8.58703 13.2669 8.42759 13.4263C8.26759 13.5863 8.06953 13.6663 7.83342 13.6663H6.16675ZM7.00009 7.24967L11.1251 1.99967H2.87509L7.00009 7.24967Z" fill="white"/>
</svg>
