<svg width="18" height="18" viewBox="0 0 18 18" fill="none" xmlns="http://www.w3.org/2000/svg">
<mask id="mask0_3950_8655" style="mask-type:alpha" maskUnits="userSpaceOnUse" x="0" y="0" width="18" height="18">
<rect width="18" height="18" fill="#D9D9D9"/>
</mask>
<g mask="url(#mask0_3950_8655)">
<path d="M0.75 15V12.9C0.75 12.475 0.8595 12.0843 1.0785 11.7277C1.297 11.3717 1.5875 11.1 1.95 10.9125C2.725 10.525 3.5125 10.2343 4.3125 10.0402C5.1125 9.84675 5.925 9.75 6.75 9.75C7.575 9.75 8.3875 9.84675 9.1875 10.0402C9.9875 10.2343 10.775 10.525 11.55 10.9125C11.9125 11.1 12.203 11.3717 12.4215 11.7277C12.6405 12.0843 12.75 12.475 12.75 12.9V15H0.75ZM14.25 15V12.75C14.25 12.2 14.097 11.6718 13.791 11.1652C13.4845 10.6593 13.05 10.225 12.4875 9.8625C13.125 9.9375 13.725 10.0655 14.2875 10.2465C14.85 10.428 15.375 10.65 15.8625 10.9125C16.3125 11.1625 16.6562 11.4405 16.8937 11.7465C17.1313 12.053 17.25 12.3875 17.25 12.75V15H14.25ZM6.75 9C5.925 9 5.21875 8.70625 4.63125 8.11875C4.04375 7.53125 3.75 6.825 3.75 6C3.75 5.175 4.04375 4.46875 4.63125 3.88125C5.21875 3.29375 5.925 3 6.75 3C7.575 3 8.28125 3.29375 8.86875 3.88125C9.45625 4.46875 9.75 5.175 9.75 6C9.75 6.825 9.45625 7.53125 8.86875 8.11875C8.28125 8.70625 7.575 9 6.75 9ZM14.25 6C14.25 6.825 13.9563 7.53125 13.3688 8.11875C12.7813 8.70625 12.075 9 11.25 9C11.1125 9 10.9375 8.9845 10.725 8.9535C10.5125 8.922 10.3375 8.8875 10.2 8.85C10.5375 8.45 10.7968 8.00625 10.9777 7.51875C11.1593 7.03125 11.25 6.525 11.25 6C11.25 5.475 11.1593 4.96875 10.9777 4.48125C10.7968 3.99375 10.5375 3.55 10.2 3.15C10.375 3.0875 10.55 3.04675 10.725 3.02775C10.9 3.00925 11.075 3 11.25 3C12.075 3 12.7813 3.29375 13.3688 3.88125C13.9563 4.46875 14.25 5.175 14.25 6ZM2.25 13.5H11.25V12.9C11.25 12.7625 11.2157 12.6375 11.1473 12.525C11.0782 12.4125 10.9875 12.325 10.875 12.2625C10.2 11.925 9.51875 11.6718 8.83125 11.5028C8.14375 11.3342 7.45 11.25 6.75 11.25C6.05 11.25 5.35625 11.3342 4.66875 11.5028C3.98125 11.6718 3.3 11.925 2.625 12.2625C2.5125 12.325 2.422 12.4125 2.3535 12.525C2.2845 12.6375 2.25 12.7625 2.25 12.9V13.5ZM6.75 7.5C7.1625 7.5 7.51575 7.353 7.80975 7.059C8.10325 6.7655 8.25 6.4125 8.25 6C8.25 5.5875 8.10325 5.2345 7.80975 4.941C7.51575 4.647 7.1625 4.5 6.75 4.5C6.3375 4.5 5.9845 4.647 5.691 4.941C5.397 5.2345 5.25 5.5875 5.25 6C5.25 6.4125 5.397 6.7655 5.691 7.059C5.9845 7.353 6.3375 7.5 6.75 7.5Z" fill="white"/>
</g>
</svg>
