<svg width="22" height="22" viewBox="0 0 22 22" fill="none" xmlns="http://www.w3.org/2000/svg">
<mask id="mask0_6113_16752" style="mask-type:alpha" maskUnits="userSpaceOnUse" x="0" y="0" width="22" height="22">
<rect width="22" height="22" fill="#D9D9D9"/>
</mask>
<g mask="url(#mask0_6113_16752)">
<path d="M10.99 16.1487C11.2517 16.1487 11.4728 16.0583 11.6532 15.8776C11.8336 15.6969 11.9238 15.4757 11.9238 15.2139C11.9238 14.9522 11.8334 14.7311 11.6527 14.5507C11.472 14.3703 11.2507 14.2801 10.989 14.2801C10.7273 14.2801 10.5062 14.3705 10.3258 14.5512C10.1454 14.7319 10.0552 14.9532 10.0552 15.2149C10.0552 15.4766 10.1456 15.6977 10.3263 15.8781C10.507 16.0585 10.7282 16.1487 10.99 16.1487ZM10.3408 12.8663H11.6311C11.6429 12.4151 11.709 12.0546 11.8295 11.7848C11.9499 11.5151 12.2422 11.1576 12.7065 10.7122C13.1095 10.3091 13.4183 9.93683 13.6328 9.59543C13.8473 9.25404 13.9545 8.85086 13.9545 8.38592C13.9545 7.59693 13.671 6.9806 13.104 6.53695C12.537 6.09332 11.8662 5.8715 11.0917 5.8715C10.3267 5.8715 9.69353 6.07569 9.1923 6.48408C8.69108 6.89246 8.33353 7.3734 8.11964 7.92692L9.29717 8.39934C9.40882 8.09497 9.59979 7.79852 9.87008 7.51002C10.1404 7.2215 10.5417 7.07724 11.0741 7.07724C11.6159 7.07724 12.0163 7.22561 12.2755 7.52237C12.5346 7.81911 12.6642 8.14553 12.6642 8.50162C12.6642 8.81304 12.5754 9.09803 12.398 9.35657C12.2205 9.61512 11.9943 9.86486 11.7193 10.1058C11.1176 10.6487 10.7374 11.0818 10.5788 11.405C10.4201 11.7282 10.3408 12.2153 10.3408 12.8663ZM11.0016 19.7096C9.79716 19.7096 8.66504 19.481 7.60525 19.0239C6.54545 18.5668 5.62357 17.9465 4.83962 17.1629C4.05566 16.3793 3.43502 15.4578 2.97771 14.3984C2.5204 13.3391 2.29175 12.2073 2.29175 11.0028C2.29175 9.79838 2.5203 8.66626 2.97741 7.60647C3.43453 6.54667 4.05488 5.62479 4.83848 4.84084C5.62209 4.05688 6.54356 3.43624 7.60289 2.97893C8.66221 2.52162 9.79409 2.29297 10.9985 2.29297C12.203 2.29297 13.3351 2.52152 14.3949 2.97864C15.4547 3.43575 16.3765 4.0561 17.1605 4.8397C17.9445 5.62331 18.5651 6.54478 19.0224 7.60411C19.4797 8.66343 19.7084 9.79531 19.7084 10.9997C19.7084 12.2042 19.4798 13.3363 19.0227 14.3961C18.5656 15.4559 17.9452 16.3778 17.1616 17.1617C16.378 17.9457 15.4566 18.5663 14.3972 19.0236C13.3379 19.4809 12.206 19.7096 11.0016 19.7096ZM11.0001 18.3346C13.0473 18.3346 14.7813 17.6242 16.2021 16.2034C17.623 14.7825 18.3334 13.0485 18.3334 11.0013C18.3334 8.95406 17.623 7.22003 16.2021 5.7992C14.7813 4.37836 13.0473 3.66795 11.0001 3.66795C8.95284 3.66795 7.21881 4.37836 5.79798 5.7992C4.37714 7.22003 3.66673 8.95406 3.66673 11.0013C3.66673 13.0485 4.37714 14.7825 5.79798 16.2034C7.21881 17.6242 8.95284 18.3346 11.0001 18.3346Z" fill="#949D9F"/>
</g>
</svg>
