<svg width="22" height="22" viewBox="0 0 22 22" fill="none" xmlns="http://www.w3.org/2000/svg">
<mask id="mask0_5865_1650" style="mask-type:alpha" maskUnits="userSpaceOnUse" x="0" y="0" width="22" height="22">
<rect width="22" height="22" fill="#D9D9D9"/>
</mask>
<g mask="url(#mask0_5865_1650)">
<path d="M11 19.7081C9.80598 19.7081 8.67925 19.4793 7.61981 19.0215C6.56036 18.5638 5.63634 17.9406 4.84777 17.152C4.0592 16.3635 3.43605 15.4395 2.97832 14.38C2.52056 13.3206 2.29169 12.1938 2.29169 10.9998C2.29169 9.7964 2.52056 8.66732 2.97832 7.61257C3.43605 6.55782 4.0592 5.63616 4.84777 4.84758C5.63634 4.05902 6.56036 3.43587 7.61981 2.97813C8.67925 2.52038 9.80598 2.2915 11 2.2915C12.2034 2.2915 13.3325 2.52038 14.3872 2.97813C15.442 3.43587 16.3637 4.05902 17.1522 4.84758C17.9408 5.63616 18.5639 6.55782 19.0217 7.61257C19.4794 8.66732 19.7083 9.7964 19.7083 10.9998C19.7083 12.1938 19.4794 13.3206 19.0217 14.38C18.5639 15.4395 17.9408 16.3635 17.1522 17.152C16.3637 17.9406 15.442 18.5638 14.3872 19.0215C13.3325 19.4793 12.2034 19.7081 11 19.7081ZM11 18.3138C11.4677 17.6932 11.8614 17.0674 12.1811 16.4363C12.5008 15.8052 12.7611 15.1154 12.962 14.3668H9.03797C9.25068 15.1389 9.51393 15.8405 9.82772 16.4716C10.1415 17.1027 10.5323 17.7168 11 18.3138ZM9.22487 18.0617C8.87348 17.5575 8.55794 16.9843 8.27823 16.342C7.99853 15.6998 7.78111 15.0414 7.62598 14.3668H4.51632C5.00052 15.3187 5.64983 16.1185 6.46426 16.766C7.27871 17.4136 8.19891 17.8455 9.22487 18.0617ZM12.7751 18.0617C13.8011 17.8455 14.7213 17.4136 15.5357 16.766C16.3502 16.1185 16.9995 15.3187 17.4837 14.3668H14.374C14.1895 15.0472 13.9574 15.7086 13.6777 16.3509C13.398 16.9931 13.0971 17.5634 12.7751 18.0617ZM3.9399 12.9918H7.34745C7.28987 12.651 7.24815 12.317 7.2223 11.9897C7.19645 11.6623 7.18353 11.3324 7.18353 10.9998C7.18353 10.6672 7.19645 10.3373 7.2223 10.01C7.24815 9.68268 7.28987 9.34862 7.34745 9.00781H3.9399C3.85176 9.31924 3.78419 9.64302 3.73718 9.97913C3.69017 10.3152 3.66666 10.6555 3.66666 10.9998C3.66666 11.3442 3.69017 11.6844 3.73718 12.0205C3.78419 12.3566 3.85176 12.6804 3.9399 12.9918ZM8.72243 12.9918H13.2776C13.3352 12.651 13.3769 12.3199 13.4027 11.9985C13.4286 11.677 13.4415 11.3442 13.4415 10.9998C13.4415 10.6555 13.4286 10.3226 13.4027 10.0012C13.3769 9.67975 13.3352 9.34862 13.2776 9.00781H8.72243C8.66484 9.34862 8.62312 9.67975 8.59726 10.0012C8.5714 10.3226 8.55848 10.6555 8.55848 10.9998C8.55848 11.3442 8.5714 11.677 8.59726 11.9985C8.62312 12.3199 8.66484 12.651 8.72243 12.9918ZM14.6525 12.9918H18.0601C18.1482 12.6804 18.2158 12.3566 18.2628 12.0205C18.3098 11.6844 18.3333 11.3442 18.3333 10.9998C18.3333 10.6555 18.3098 10.3152 18.2628 9.97913C18.2158 9.64302 18.1482 9.31924 18.0601 9.00781H14.6525C14.7101 9.34862 14.7518 9.68268 14.7777 10.01C14.8035 10.3373 14.8165 10.6672 14.8165 10.9998C14.8165 11.3324 14.8035 11.6623 14.7777 11.9897C14.7518 12.317 14.7101 12.651 14.6525 12.9918ZM14.374 7.63285H17.4837C16.9936 6.66916 16.3487 5.86941 15.549 5.23361C14.7492 4.59783 13.8246 4.163 12.7751 3.92913C13.1265 4.46267 13.4391 5.04617 13.7129 5.67962C13.9868 6.31307 14.2071 6.96414 14.374 7.63285ZM9.03797 7.63285H12.962C12.7493 6.86661 12.4817 6.16059 12.1591 5.5148C11.8365 4.86903 11.4501 4.25938 11 3.68587C10.5499 4.25938 10.1635 4.86903 9.84094 5.5148C9.51834 6.16059 9.25068 6.86661 9.03797 7.63285ZM4.51632 7.63285H7.62598C7.79286 6.96414 8.01322 6.31307 8.28705 5.67962C8.56088 5.04617 8.87348 4.46267 9.22487 3.92913C8.16953 4.163 7.24345 4.5993 6.44664 5.23804C5.64984 5.87677 5.0064 6.67504 4.51632 7.63285Z" fill="white"/>
</g>
</svg>
