<svg width="35" height="34" viewBox="0 0 35 34" fill="none" xmlns="http://www.w3.org/2000/svg">
<mask id="path-1-inside-1_3648_55517" fill="white">
<rect x="0.5" y="5" width="34" height="24" rx="1"/>
</mask>
<rect x="0.5" y="5" width="34" height="24" rx="1" stroke="white" stroke-width="4" mask="url(#path-1-inside-1_3648_55517)"/>
<path d="M4.9303 12.7129H5.59631C5.73238 12.7845 5.81295 12.8937 5.83801 13.0405L7.10022 20.877C7.10022 21.1348 6.99996 21.278 6.79944 21.3066H6.24084C6.05465 21.2243 5.96155 21.0166 5.96155 20.6836C5.94006 20.2181 5.82011 19.9746 5.60168 19.9531L5.06458 19.9585C4.82825 19.9692 4.69397 20.1877 4.66174 20.6138L4.60803 21.0703C4.57222 21.2207 4.47555 21.2995 4.31799 21.3066H3.73254C3.57141 21.2279 3.49084 21.099 3.49084 20.9199L4.71545 13.0566C4.7441 12.8955 4.81571 12.7809 4.9303 12.7129ZM4.9303 18.084L4.86584 18.5029C4.85152 18.7822 4.89986 18.9272 5.01086 18.938H5.53186C5.65719 18.9451 5.70911 18.7983 5.68762 18.4976L5.55334 17.418C5.5247 17.2067 5.4495 17.0921 5.32776 17.0742C5.15946 17.0778 5.06278 17.187 5.03772 17.4019L4.9303 18.084ZM8.03801 12.7129H9.601C9.89104 12.7308 10.0916 12.7523 10.2026 12.7773C10.6609 12.9385 10.9742 13.1462 11.1425 13.4004C11.3144 13.6546 11.4093 13.8623 11.4272 14.0234L11.4218 15.8066C11.3967 16.2113 11.2768 16.5192 11.0619 16.7305V16.9668C11.1801 17.1136 11.266 17.2712 11.3198 17.4395C11.3735 17.6077 11.4075 17.8226 11.4218 18.084V19.6846C11.3967 20.748 11.0512 21.2816 10.3852 21.2852H8.04338C7.82854 21.2852 7.72112 21.1455 7.72112 20.8662L7.72649 13.019C7.74081 12.8293 7.84465 12.7272 8.03801 12.7129ZM8.80071 14.3081V15.8657C8.78997 16.1844 8.86337 16.3438 9.02092 16.3438H9.60637C10.0754 16.3402 10.3082 16.068 10.3046 15.5273V14.6895C10.3046 14.1165 10.0701 13.8301 9.601 13.8301H9.02629C8.87232 13.8301 8.79713 13.9894 8.80071 14.3081ZM8.79534 17.8262V19.8511C8.79534 20.0981 8.87232 20.2217 9.02629 20.2217H9.601C10.0701 20.2217 10.3046 20.0462 10.3046 19.6953V17.8691C10.3046 17.5361 10.0719 17.3696 9.60637 17.3696H9.02629C8.87948 17.3732 8.8025 17.5254 8.79534 17.8262ZM14.9538 14.4854C14.7784 14.4854 14.6906 14.4227 14.6906 14.2974C14.6906 13.9823 14.4221 13.8247 13.885 13.8247C13.3407 13.8247 13.0686 14.0449 13.0686 14.4854V19.4697C13.0686 19.9639 13.3407 20.2109 13.885 20.2109C14.4221 20.2109 14.6889 20.0247 14.6853 19.6523C14.6889 19.5306 14.7873 19.4697 14.9807 19.4697H15.362C15.5876 19.4697 15.6986 19.527 15.695 19.6416C15.6986 20.7588 15.0953 21.3174 13.885 21.3174C12.6389 21.3174 12.0158 20.7015 12.0158 19.4697V14.4854C12.0158 13.3216 12.6389 12.7326 13.885 12.7183C15.0953 12.7326 15.7004 13.259 15.7004 14.2974C15.7004 14.4227 15.6019 14.4854 15.405 14.4854H14.9538ZM16.9961 16.0752H17.8125C18.1276 16.0752 18.2852 16.2023 18.2852 16.4565V17.0742C18.2852 17.332 18.1241 17.4609 17.8018 17.4609H16.9747C16.6739 17.4609 16.5253 17.3267 16.5289 17.0581L16.5235 16.4404C16.5235 16.1969 16.681 16.0752 16.9961 16.0752ZM20.9398 12.7183H21.5038C21.6864 12.7183 21.7795 12.797 21.7831 12.9546L21.7777 21.1348V21.1401C21.7777 21.2511 21.6882 21.3066 21.5091 21.3066H20.913C20.7518 21.3066 20.6713 21.2493 20.6713 21.1348V14.6089C20.6713 14.2902 20.6175 14.1309 20.5101 14.1309H20.1449C19.9623 14.1309 19.871 14.0181 19.871 13.7925V13.4863C19.9139 13.2214 20.0482 13.0728 20.2738 13.0405C20.4779 13.0405 20.6426 12.9618 20.7679 12.8042C20.8109 12.7576 20.8682 12.729 20.9398 12.7183ZM25.3581 12.7183C26.0348 12.7183 26.5111 13.0262 26.7868 13.6421C26.8727 13.8319 26.93 14.0342 26.9587 14.249C26.9587 14.4209 26.887 14.5391 26.7438 14.6035C26.2497 14.6465 26.0026 14.6125 26.0026 14.5015C26.0098 13.9572 25.7305 13.6851 25.1647 13.6851C24.6348 13.6851 24.3698 13.9912 24.3698 14.6035L24.3859 16.043C24.411 16.1969 24.4754 16.2847 24.5793 16.3062C24.7869 16.2632 24.9875 16.2507 25.1808 16.2686C26.3768 16.2972 26.9748 16.8451 26.9748 17.9121V19.5825C26.9748 20.7319 26.4466 21.3066 25.3903 21.3066H25.0627C23.9562 21.3066 23.3976 20.7427 23.3869 19.6147V14.5283C23.3869 13.3216 23.9079 12.7183 24.9499 12.7183H25.3581ZM25.2077 17.3965C24.6777 17.3965 24.4128 17.6274 24.4128 18.0894V19.5664C24.4128 20.057 24.6777 20.3076 25.2077 20.3184C25.7627 20.3112 26.0402 20.1232 26.0402 19.7544V18.0894C26.0223 17.6346 25.7448 17.4036 25.2077 17.3965ZM29.4863 12.7344C30.6572 12.7344 31.2426 13.259 31.2426 14.3081V15.8496C31.2426 16.1361 31.1585 16.3527 30.9902 16.4995L30.8344 16.6392C30.7664 16.6893 30.7664 16.743 30.8344 16.8003L31.0009 16.9722C31.1621 17.1512 31.2426 17.3589 31.2426 17.5952V19.3462C31.2426 20.6532 30.65 21.312 29.4648 21.3228C28.2545 21.3228 27.6351 20.646 27.6064 19.2925V17.6006C27.6064 17.3607 27.6941 17.1512 27.8696 16.9722L28.0468 16.8003C28.1041 16.743 28.1041 16.6911 28.0468 16.6445L27.8535 16.4888C27.6888 16.3491 27.6064 16.1361 27.6064 15.8496V14.3188C27.6064 13.2625 28.2259 12.7344 29.4648 12.7344H29.4863ZM28.5678 15.1997C28.5678 15.9194 28.8704 16.2793 29.4756 16.2793C30.0127 16.2793 30.2812 15.9248 30.2812 15.2158V14.5444C30.2812 13.9823 30.0127 13.7012 29.4756 13.7012C28.8704 13.7012 28.5678 13.9823 28.5678 14.5444V15.1997ZM28.5678 19.4858C28.5678 20.0767 28.8704 20.3721 29.4756 20.3721C30.0127 20.3721 30.2812 20.0767 30.2812 19.4858V18.0894C30.2812 17.5236 30.0127 17.2407 29.4756 17.2407C28.8704 17.2407 28.5678 17.5182 28.5678 18.0732V19.4858Z" fill="white"/>
<line x1="7" y1="9.5" x2="9" y2="9.5" stroke="white" stroke-linecap="round"/>
<line x1="7" y1="24.5" x2="9" y2="24.5" stroke="white" stroke-linecap="round"/>
<line x1="26" y1="9.5" x2="28" y2="9.5" stroke="white" stroke-linecap="round"/>
<line x1="26" y1="24.5" x2="28" y2="24.5" stroke="white" stroke-linecap="round"/>
</svg>
