<svg width="35" height="34" viewBox="0 0 35 34" fill="none" xmlns="http://www.w3.org/2000/svg">
<mask id="path-1-inside-1_3648_17949" fill="white">
<rect x="0.5" y="5" width="34" height="24" rx="1"/>
</mask>
<rect x="0.5" y="5" width="34" height="24" rx="1" stroke="#7BD7A1" stroke-width="4" mask="url(#path-1-inside-1_3648_17949)"/>
<path d="M4.93018 12.7129H5.59619C5.73226 12.7845 5.81283 12.8937 5.83789 13.0405L7.1001 20.877C7.1001 21.1348 6.99984 21.278 6.79932 21.3066H6.24072C6.05452 21.2243 5.96143 21.0166 5.96143 20.6836C5.93994 20.2181 5.81999 19.9746 5.60156 19.9531L5.06445 19.9585C4.82812 19.9692 4.69385 20.1877 4.66162 20.6138L4.60791 21.0703C4.5721 21.2207 4.47542 21.2995 4.31787 21.3066H3.73242C3.57129 21.2279 3.49072 21.099 3.49072 20.9199L4.71533 13.0566C4.74398 12.8955 4.81559 12.7809 4.93018 12.7129ZM4.93018 18.084L4.86572 18.5029C4.8514 18.7822 4.89974 18.9272 5.01074 18.938H5.53174C5.65706 18.9451 5.70898 18.7983 5.6875 18.4976L5.55322 17.418C5.52458 17.2067 5.44938 17.0921 5.32764 17.0742C5.15934 17.0778 5.06266 17.187 5.0376 17.4019L4.93018 18.084ZM8.03789 12.7129H9.60088C9.89092 12.7308 10.0914 12.7523 10.2024 12.7773C10.6608 12.9385 10.9741 13.1462 11.1424 13.4004C11.3143 13.6546 11.4091 13.8623 11.4271 14.0234L11.4217 15.8066C11.3966 16.2113 11.2767 16.5192 11.0618 16.7305V16.9668C11.18 17.1136 11.2659 17.2712 11.3196 17.4395C11.3733 17.6077 11.4074 17.8226 11.4217 18.084V19.6846C11.3966 20.748 11.0511 21.2816 10.3851 21.2852H8.04326C7.82842 21.2852 7.721 21.1455 7.721 20.8662L7.72637 13.019C7.74069 12.8293 7.84453 12.7272 8.03789 12.7129ZM8.80059 14.3081V15.8657C8.78984 16.1844 8.86325 16.3438 9.0208 16.3438H9.60625C10.0753 16.3402 10.3081 16.068 10.3045 15.5273V14.6895C10.3045 14.1165 10.07 13.8301 9.60088 13.8301H9.02617C8.8722 13.8301 8.79701 13.9894 8.80059 14.3081ZM8.79521 17.8262V19.8511C8.79521 20.0981 8.8722 20.2217 9.02617 20.2217H9.60088C10.07 20.2217 10.3045 20.0462 10.3045 19.6953V17.8691C10.3045 17.5361 10.0717 17.3696 9.60625 17.3696H9.02617C8.87936 17.3732 8.80238 17.5254 8.79521 17.8262ZM14.9537 14.4854C14.7783 14.4854 14.6905 14.4227 14.6905 14.2974C14.6905 13.9823 14.422 13.8247 13.8849 13.8247C13.3406 13.8247 13.0685 14.0449 13.0685 14.4854V19.4697C13.0685 19.9639 13.3406 20.2109 13.8849 20.2109C14.422 20.2109 14.6887 20.0247 14.6852 19.6523C14.6887 19.5306 14.7872 19.4697 14.9806 19.4697H15.3619C15.5875 19.4697 15.6985 19.527 15.6949 19.6416C15.6985 20.7588 15.0951 21.3174 13.8849 21.3174C12.6388 21.3174 12.0157 20.7015 12.0157 19.4697V14.4854C12.0157 13.3216 12.6388 12.7326 13.8849 12.7183C15.0951 12.7326 15.7003 13.259 15.7003 14.2974C15.7003 14.4227 15.6018 14.4854 15.4049 14.4854H14.9537ZM16.996 16.0752H17.8124C18.1275 16.0752 18.2851 16.2023 18.2851 16.4565V17.0742C18.2851 17.332 18.1239 17.4609 17.8017 17.4609H16.9745C16.6737 17.4609 16.5251 17.3267 16.5287 17.0581L16.5234 16.4404C16.5234 16.1969 16.6809 16.0752 16.996 16.0752ZM20.9397 12.7183H21.5037C21.6863 12.7183 21.7794 12.797 21.7829 12.9546L21.7776 21.1348V21.1401C21.7776 21.2511 21.6881 21.3066 21.509 21.3066H20.9128C20.7517 21.3066 20.6711 21.2493 20.6711 21.1348V14.6089C20.6711 14.2902 20.6174 14.1309 20.51 14.1309H20.1448C19.9621 14.1309 19.8708 14.0181 19.8708 13.7925V13.4863C19.9138 13.2214 20.0481 13.0728 20.2737 13.0405C20.4778 13.0405 20.6425 12.9618 20.7678 12.8042C20.8108 12.7576 20.8681 12.729 20.9397 12.7183ZM25.3579 12.7183C26.0347 12.7183 26.5109 13.0262 26.7867 13.6421C26.8726 13.8319 26.9299 14.0342 26.9585 14.249C26.9585 14.4209 26.8869 14.5391 26.7437 14.6035C26.2495 14.6465 26.0025 14.6125 26.0025 14.5015C26.0096 13.9572 25.7303 13.6851 25.1646 13.6851C24.6346 13.6851 24.3697 13.9912 24.3697 14.6035L24.3858 16.043C24.4108 16.1969 24.4753 16.2847 24.5791 16.3062C24.7868 16.2632 24.9873 16.2507 25.1807 16.2686C26.3767 16.2972 26.9746 16.8451 26.9746 17.9121V19.5825C26.9746 20.7319 26.4465 21.3066 25.3902 21.3066H25.0625C23.9561 21.3066 23.3975 20.7427 23.3868 19.6147V14.5283C23.3868 13.3216 23.9078 12.7183 24.9497 12.7183H25.3579ZM25.2076 17.3965C24.6776 17.3965 24.4126 17.6274 24.4126 18.0894V19.5664C24.4126 20.057 24.6776 20.3076 25.2076 20.3184C25.7626 20.3112 26.0401 20.1232 26.0401 19.7544V18.0894C26.0222 17.6346 25.7447 17.4036 25.2076 17.3965ZM29.4862 12.7344C30.6571 12.7344 31.2425 13.259 31.2425 14.3081V15.8496C31.2425 16.1361 31.1584 16.3527 30.9901 16.4995L30.8343 16.6392C30.7663 16.6893 30.7663 16.743 30.8343 16.8003L31.0008 16.9722C31.162 17.1512 31.2425 17.3589 31.2425 17.5952V19.3462C31.2425 20.6532 30.6499 21.312 29.4647 21.3228C28.2544 21.3228 27.6349 20.646 27.6063 19.2925V17.6006C27.6063 17.3607 27.694 17.1512 27.8695 16.9722L28.0467 16.8003C28.104 16.743 28.104 16.6911 28.0467 16.6445L27.8534 16.4888C27.6886 16.3491 27.6063 16.1361 27.6063 15.8496V14.3188C27.6063 13.2625 28.2258 12.7344 29.4647 12.7344H29.4862ZM28.5677 15.1997C28.5677 15.9194 28.8703 16.2793 29.4754 16.2793C30.0125 16.2793 30.2811 15.9248 30.2811 15.2158V14.5444C30.2811 13.9823 30.0125 13.7012 29.4754 13.7012C28.8703 13.7012 28.5677 13.9823 28.5677 14.5444V15.1997ZM28.5677 19.4858C28.5677 20.0767 28.8703 20.3721 29.4754 20.3721C30.0125 20.3721 30.2811 20.0767 30.2811 19.4858V18.0894C30.2811 17.5236 30.0125 17.2407 29.4754 17.2407C28.8703 17.2407 28.5677 17.5182 28.5677 18.0732V19.4858Z" fill="#7BD7A1"/>
<line x1="7" y1="9.5" x2="9" y2="9.5" stroke="#7BD7A1" stroke-linecap="round"/>
<line x1="7" y1="24.5" x2="9" y2="24.5" stroke="#7BD7A1" stroke-linecap="round"/>
<line x1="26" y1="9.5" x2="28" y2="9.5" stroke="#7BD7A1" stroke-linecap="round"/>
<line x1="26" y1="24.5" x2="28" y2="24.5" stroke="#7BD7A1" stroke-linecap="round"/>
</svg>
