<svg width="18" height="18" viewBox="0 0 18 18" fill="none" xmlns="http://www.w3.org/2000/svg">
<mask id="mask0_5479_55767" style="mask-type:alpha" maskUnits="userSpaceOnUse" x="0" y="0" width="18" height="18">
<rect width="18" height="18" fill="#D9D9D9"/>
</mask>
<g mask="url(#mask0_5479_55767)">
<path d="M0.75 13.5924V11.7591H13.5833V13.5924H0.75ZM0.75 9.92578V8.09245H13.5833V9.92578H0.75ZM0.75 6.25911V4.42578H13.5833V6.25911H0.75ZM16.3333 13.5924C16.0736 13.5924 15.8561 13.5044 15.6807 13.3284C15.5047 13.1531 15.4167 12.9355 15.4167 12.6758C15.4167 12.4161 15.5047 12.1982 15.6807 12.0222C15.8561 11.8468 16.0736 11.7591 16.3333 11.7591C16.5931 11.7591 16.8106 11.8468 16.986 12.0222C17.162 12.1982 17.25 12.4161 17.25 12.6758C17.25 12.9355 17.162 13.1531 16.986 13.3284C16.8106 13.5044 16.5931 13.5924 16.3333 13.5924ZM16.3333 9.92578C16.0736 9.92578 15.8561 9.83778 15.6807 9.66178C15.5047 9.48639 15.4167 9.26884 15.4167 9.00911C15.4167 8.74939 15.5047 8.53153 15.6807 8.35553C15.8561 8.18014 16.0736 8.09245 16.3333 8.09245C16.5931 8.09245 16.8106 8.18014 16.986 8.35553C17.162 8.53153 17.25 8.74939 17.25 9.00911C17.25 9.26884 17.162 9.48639 16.986 9.66178C16.8106 9.83778 16.5931 9.92578 16.3333 9.92578ZM16.3333 6.25911C16.0736 6.25911 15.8561 6.17111 15.6807 5.99511C15.5047 5.81973 15.4167 5.60217 15.4167 5.34245C15.4167 5.08273 15.5047 4.86486 15.6807 4.68886C15.8561 4.51348 16.0736 4.42578 16.3333 4.42578C16.5931 4.42578 16.8106 4.51348 16.986 4.68886C17.162 4.86486 17.25 5.08273 17.25 5.34245C17.25 5.60217 17.162 5.81973 16.986 5.99511C16.8106 6.17111 16.5931 6.25911 16.3333 6.25911Z" fill="white"/>
</g>
</svg>
