<svg width="204" height="86" viewBox="0 0 204 86" fill="none" xmlns="http://www.w3.org/2000/svg">
<path d="M140.94 63.8179C142.829 65.953 145.661 67.0206 149.379 67.0206H178.413C185.553 67.0206 191.159 62.7503 193.579 56.0482L196.116 48.5751C196.529 47.4482 196.706 46.3806 196.706 45.3723C196.706 43.6523 196.116 42.1103 194.936 40.8054C193.048 38.7296 190.215 37.662 186.438 37.662H163.188C162.598 37.662 162.361 37.4248 162.361 37.0096C162.361 36.9503 162.361 36.8317 162.361 36.7723L162.952 35.1117L157.995 30.6041H165.489L165.607 30.5448H185.199C185.73 30.5448 185.966 30.7227 186.025 31.0192C185.966 31.1379 185.966 31.3158 185.907 31.4344L185.022 34.1627H201.073L202.548 29.8923C202.903 28.7655 203.08 27.7572 203.08 26.7489C203.08 24.9696 202.489 23.4275 201.309 22.1227C199.48 20.0468 196.706 18.9792 192.871 18.9792H146.9L152.389 23.9613C150.677 25.7406 149.497 27.6979 148.73 29.8923L146.192 37.3654C145.779 38.4923 145.602 39.5599 145.602 40.5682C145.602 42.2882 146.192 43.8303 147.373 45.1351C149.261 47.2703 152.093 48.3379 155.811 48.3379H179.121C179.652 48.3379 179.888 48.5158 179.947 48.8123C179.888 48.931 179.888 49.0496 179.829 49.1682L178 54.5061C177.823 55.0992 177.35 55.3958 176.642 55.3958H157.109C156.519 55.3958 156.224 55.2179 156.224 54.862C156.224 54.7434 156.224 54.6248 156.283 54.5061L157.286 51.7779H141.235L139.76 56.0482C139.347 57.1751 139.17 58.2427 139.17 59.251C139.17 60.971 139.76 62.513 140.94 63.8179Z" fill="#DBDFDE"/>
<path d="M26.4372 36.8317H10.3861L0 67.0206H16.0512L26.4372 36.8317Z" fill="#DBDFDE"/>
<path fill-rule="evenodd" clip-rule="evenodd" d="M77.907 67.0206H93.9582L99.3873 51.2441H107.177L115.958 67.6137H134.252L124.054 51.2441H124.349C128.952 51.2441 132.729 50.1765 135.62 48.0413C138.512 45.8468 140.459 43.2965 141.522 40.331L145.062 29.8923C145.475 28.8248 145.652 27.7572 145.652 26.7489C145.652 25.0882 145.062 23.5461 143.882 22.182C141.994 20.0468 139.161 18.9792 135.443 18.9792H84.9294L87.6548 21.4512L92.1878 25.5627L77.907 67.0206ZM127.713 30.5448L106.528 30.6041H99.5053L104.875 35.4675L103.223 40.2123H124.467C125.116 40.2123 125.588 39.9158 125.765 39.3227L128.48 31.4344C128.539 31.3158 128.539 31.1379 128.539 31.0786C128.539 30.7227 128.303 30.5448 127.713 30.5448Z" fill="#DBDFDE"/>
<path d="M36.0511 67.0206H52.1023L62.9014 35.7641L57.2363 30.6041L84.4997 30.5448L87.6548 21.4512L84.9294 18.9792H32.5745H6.84536L26.4372 36.8317L28.6202 30.5448H48.6206L36.0511 67.0206Z" fill="#DBDFDE"/>
<path fill-rule="evenodd" clip-rule="evenodd" d="M141.866 80.662H122.361L124.77 72.3585H139.27L140.945 67.0206H149.608L146.369 77.3441C145.749 79.319 143.927 80.662 141.866 80.662ZM164.68 18.9792L166.838 12.1027C167.797 9.04492 165.525 5.93091 162.335 5.93091H144.039L141.631 14.2344H157.506L156.018 18.9792H164.68ZM87.3363 14.2344H102.73L105.283 5.93091H84.7403C82.6799 5.93091 80.8575 7.27386 80.2379 9.2488L77.185 18.9792H85.8477L87.3363 14.2344ZM70.7749 67.0206H62.1123L59.7688 74.4902C58.8094 77.5479 61.0811 80.662 64.2711 80.662H82.305L84.8581 72.3585H69.1002L70.7749 67.0206Z" fill="#EE7319"/>
</svg>
