<svg width="14" height="4" viewBox="0 0 14 4" fill="none" xmlns="http://www.w3.org/2000/svg">
<path d="M6.44443 1.16853C6.60888 1.05865 6.80222 1 7 1C7.26522 1 7.51957 1.10536 7.70711 1.29289C7.89464 1.48043 8 1.73478 8 2C8 2.19778 7.94135 2.39112 7.83147 2.55557C7.72159 2.72002 7.56541 2.84819 7.38268 2.92388C7.19996 2.99957 6.99889 3.01937 6.80491 2.98079C6.61093 2.9422 6.43275 2.84696 6.29289 2.70711C6.15304 2.56725 6.0578 2.38907 6.01922 2.19509C5.98063 2.00111 6.00043 1.80004 6.07612 1.61732C6.15181 1.43459 6.27998 1.27841 6.44443 1.16853ZM1.19443 1.16853C1.35888 1.05865 1.55222 1 1.75 1C2.01522 1 2.26957 1.10536 2.45711 1.29289L2.81066 0.93934L2.45711 1.29289C2.64464 1.48043 2.75 1.73478 2.75 2C2.75 2.19778 2.69135 2.39112 2.58147 2.55557C2.47159 2.72002 2.31541 2.84819 2.13268 2.92388C1.94996 2.99957 1.74889 3.01937 1.55491 2.98079C1.36093 2.9422 1.18275 2.84696 1.04289 2.70711C0.903041 2.56725 0.807801 2.38907 0.769215 2.19509C0.73063 2.00111 0.750434 1.80004 0.826121 1.61732C0.901809 1.43459 1.02998 1.27841 1.19443 1.16853ZM11.6944 1.16853C11.8589 1.05865 12.0522 1 12.25 1C12.5152 1 12.7696 1.10536 12.9571 1.29289L13.309 0.941032L12.9571 1.29289C13.1446 1.48043 13.25 1.73478 13.25 2C13.25 2.19778 13.1914 2.39112 13.0815 2.55557L13.4972 2.83336L13.0815 2.55557C12.9716 2.72002 12.8154 2.84819 12.6327 2.92388C12.45 2.99957 12.2489 3.01937 12.0549 2.98079C11.8609 2.9422 11.6827 2.84696 11.5429 2.70711C11.403 2.56725 11.3078 2.38907 11.2692 2.19509C11.2306 2.00111 11.2504 1.80004 11.3261 1.61732C11.4018 1.43459 11.53 1.27841 11.6944 1.16853Z" fill="#DBDFDE" stroke="#DBDFDE"/>
</svg>
