<svg width="19" height="16" viewBox="0 0 19 16" fill="none" xmlns="http://www.w3.org/2000/svg">
<path d="M9.49992 2.97884C12.6583 2.97884 15.4749 4.75384 16.8499 7.56217C16.3582 8.57884 15.6666 9.45384 14.8416 10.1622L16.0166 11.3372C17.1749 10.3122 18.0916 9.02884 18.6666 7.56217C17.2249 3.90384 13.6666 1.31217 9.49992 1.31217C8.44158 1.31217 7.42492 1.47884 6.46658 1.78717L7.84158 3.16217C8.38325 3.05384 8.93325 2.97884 9.49992 2.97884ZM8.60825 3.92884L10.3333 5.65384C10.8083 5.86217 11.1916 6.24551 11.3999 6.72051L13.1249 8.44551C13.1916 8.16217 13.2416 7.86217 13.2416 7.55384C13.2499 5.48717 11.5666 3.81217 9.49992 3.81217C9.19158 3.81217 8.89992 3.85384 8.60825 3.92884ZM1.17492 1.20384L3.40825 3.43717C2.04992 4.50384 0.974919 5.92051 0.333252 7.56217C1.77492 11.2205 5.33325 13.8122 9.49992 13.8122C10.7666 13.8122 11.9833 13.5705 13.0999 13.1288L15.9499 15.9788L17.1249 14.8038L2.34992 0.0205078L1.17492 1.20384ZM7.42492 7.45384L9.59992 9.62884C9.56658 9.63717 9.53325 9.64551 9.49992 9.64551C8.34992 9.64551 7.41658 8.71217 7.41658 7.56217C7.41658 7.52051 7.42492 7.49551 7.42492 7.45384ZM4.59159 4.62051L6.04992 6.07884C5.85825 6.53717 5.74992 7.03717 5.74992 7.56217C5.74992 9.62884 7.43325 11.3122 9.49992 11.3122C10.0249 11.3122 10.5249 11.2038 10.9749 11.0122L11.7916 11.8288C11.0583 12.0288 10.2916 12.1455 9.49992 12.1455C6.34158 12.1455 3.52492 10.3705 2.14992 7.56217C2.73325 6.37051 3.58325 5.38717 4.59159 4.62051Z" fill="white" fill-opacity="0.7"/>
</svg>
