<svg width="22" height="22" viewBox="0 0 22 22" fill="none" xmlns="http://www.w3.org/2000/svg">
<mask id="mask0_5865_5981" style="mask-type:alpha" maskUnits="userSpaceOnUse" x="0" y="0" width="22" height="22">
<rect width="22" height="22" fill="#D9D9D9"/>
</mask>
<g mask="url(#mask0_5865_5981)">
<path d="M3.89584 17.2934V15.9184H5.72918V9.2726C5.72918 8.02804 6.11405 6.92775 6.88381 5.97172C7.65358 5.01569 8.6437 4.40252 9.85418 4.13223V3.49056C9.85418 3.16737 9.96435 2.8956 10.1847 2.67525C10.405 2.4549 10.6768 2.34473 11 2.34473C11.3232 2.34473 11.5949 2.4549 11.8153 2.67525C12.0356 2.8956 12.1458 3.16737 12.1458 3.49056V4.13223C13.3563 4.40252 14.3464 5.01569 15.1162 5.97172C15.8859 6.92775 16.2708 8.02804 16.2708 9.2726V15.9184H18.1041V17.2934H3.89584ZM11 19.9905C10.5487 19.9905 10.1597 19.8301 9.833 19.5093C9.5063 19.1884 9.34295 18.7965 9.34295 18.3335H12.657C12.657 18.7965 12.4966 19.1884 12.1758 19.5093C11.8549 19.8301 11.463 19.9905 11 19.9905ZM7.10413 15.9184H14.8958V9.2726C14.8958 8.19374 14.5162 7.27471 13.757 6.51551C12.9979 5.75633 12.0788 5.37674 11 5.37674C9.92113 5.37674 9.00211 5.75633 8.24293 6.51551C7.48373 7.27471 7.10413 8.19374 7.10413 9.2726V15.9184Z" fill="white"/>
</g>
</svg>
