<svg width="116" height="116" viewBox="0 0 116 116" fill="none" xmlns="http://www.w3.org/2000/svg">
<mask id="mask0_5774_158430" style="mask-type:alpha" maskUnits="userSpaceOnUse" x="0" y="0" width="116" height="116">
<rect width="116" height="116" fill="#D9D9D9"/>
</mask>
<g mask="url(#mask0_5774_158430)">
<path d="M45.4521 76.1235H52.702V39.8737H45.4521V76.1235ZM63.2981 76.1235H70.548V39.8737H63.2981V76.1235ZM58.0081 103.915C51.6575 103.915 45.6881 102.71 40.1002 100.3C34.5121 97.8896 29.6513 94.6186 25.5177 90.4869C21.3841 86.3552 18.1117 81.4965 15.7004 75.9109C13.2891 70.3254 12.0835 64.3574 12.0835 58.0067C12.0835 51.656 13.2886 45.6867 15.6988 40.0987C18.1091 34.5106 21.38 29.6498 25.5117 25.5163C29.6435 21.3827 34.5021 18.1102 40.0877 15.6989C45.6732 13.2877 51.6413 12.082 57.992 12.082C64.3426 12.082 70.312 13.2871 75.8999 15.6974C81.488 18.1076 86.3488 21.3785 90.4823 25.5102C94.616 29.642 97.8884 34.5007 100.3 40.0863C102.711 45.6717 103.917 51.6398 103.917 57.9905C103.917 64.3412 102.711 70.3105 100.301 75.8985C97.891 81.4865 94.6201 86.3473 90.4884 90.4809C86.3566 94.6145 81.4979 97.887 75.9124 100.298C70.3269 102.71 64.3588 103.915 58.0081 103.915ZM58 96.6653C68.7945 96.6653 77.9376 92.9194 85.4292 85.4278C92.9209 77.9361 96.6667 68.793 96.6667 57.9986C96.6667 47.2041 92.9209 38.0611 85.4292 30.5694C77.9376 23.0777 68.7945 19.3319 58 19.3319C47.2056 19.3319 38.0625 23.0777 30.5709 30.5694C23.0792 38.0611 19.3334 47.2041 19.3334 57.9986C19.3334 68.793 23.0792 77.9361 30.5709 85.4278C38.0625 92.9194 47.2056 96.6653 58 96.6653Z" fill="white"/>
</g>
</svg>
