<svg width="16" height="16" viewBox="0 0 16 16" fill="none" xmlns="http://www.w3.org/2000/svg">
<mask id="mask0_4158_5319" style="mask-type:alpha" maskUnits="userSpaceOnUse" x="0" y="0" width="16" height="16">
<rect x="0.285645" y="0.285156" width="15.4286" height="15.4286" fill="#D9D9D9"/>
</mask>
<g mask="url(#mask0_4158_5319)">
<path d="M8.00004 7.99833C7.29289 7.99833 6.68754 7.74654 6.18396 7.24297C5.68039 6.7394 5.42861 6.13404 5.42861 5.4269C5.42861 4.71975 5.68039 4.1144 6.18396 3.61083C6.68754 3.10725 7.29289 2.85547 8.00004 2.85547C8.70718 2.85547 9.31254 3.10725 9.81611 3.61083C10.3197 4.1144 10.5715 4.71975 10.5715 5.4269C10.5715 6.13404 10.3197 6.7394 9.81611 7.24297C9.31254 7.74654 8.70718 7.99833 8.00004 7.99833ZM2.85718 13.1412V11.3412C2.85718 10.9769 2.95104 10.642 3.13875 10.3364C3.32604 10.0313 3.57503 9.79833 3.88575 9.63761C4.55003 9.30547 5.22503 9.05625 5.91075 8.88997C6.59646 8.72411 7.29289 8.64118 8.00004 8.64118C8.70718 8.64118 9.40361 8.72411 10.0893 8.88997C10.775 9.05625 11.45 9.30547 12.1143 9.63761C12.425 9.79833 12.674 10.0313 12.8613 10.3364C13.049 10.642 13.1429 10.9769 13.1429 11.3412V13.1412H2.85718Z" fill="#3B414A"/>
</g>
</svg>
