<svg width="22" height="22" viewBox="0 0 22 22" fill="none" xmlns="http://www.w3.org/2000/svg">
<g id="person_outline">
<mask id="mask0_6630_62971" style="mask-type:alpha" maskUnits="userSpaceOnUse" x="0" y="0" width="22" height="22">
<rect id="Bounding box" width="22" height="22" fill="#D9D9D9"/>
</mask>
<g mask="url(#mask0_6630_62971)">
<path id="person" d="M10.9998 10.5111C10.0587 10.5111 9.2531 10.1761 8.58291 9.50589C7.91272 8.8357 7.57763 8.03006 7.57763 7.08896C7.57763 6.14784 7.91272 5.3422 8.58291 4.67203C9.2531 4.00184 10.0587 3.66675 10.9998 3.66675C11.9409 3.66675 12.7466 4.00184 13.4168 4.67203C14.087 5.3422 14.422 6.14784 14.422 7.08896C14.422 8.03006 14.087 8.8357 13.4168 9.50589C12.7466 10.1761 11.9409 10.5111 10.9998 10.5111ZM3.6665 17.9573V15.7837C3.6665 15.3048 3.79656 14.8614 4.05669 14.4533C4.31679 14.0453 4.66434 13.7316 5.09932 13.5122C6.06582 13.0384 7.04079 12.683 8.0242 12.4461C9.00762 12.2092 9.9995 12.0907 10.9998 12.0907C12.0002 12.0907 12.992 12.2092 13.9755 12.4461C14.9589 12.683 15.9338 13.0384 16.9004 13.5122C17.3353 13.7316 17.6829 14.0453 17.943 14.4533C18.2031 14.8614 18.3332 15.3048 18.3332 15.7837V17.9573H3.6665ZM5.13315 16.4907H16.8665V15.7837C16.8665 15.5856 16.8092 15.4023 16.6945 15.2337C16.5798 15.0651 16.424 14.9275 16.2272 14.8209C15.3848 14.406 14.5258 14.0917 13.6503 13.8779C12.7748 13.6642 11.8913 13.5573 10.9998 13.5573C10.1084 13.5573 9.2249 13.6642 8.34937 13.8779C7.47383 14.0917 6.61486 14.406 5.77247 14.8209C5.57566 14.9275 5.41991 15.0651 5.30522 15.2337C5.19051 15.4023 5.13315 15.5856 5.13315 15.7837V16.4907ZM10.9998 9.04452C11.5376 9.04452 11.998 8.85304 12.381 8.47007C12.7639 8.08711 12.9554 7.62674 12.9554 7.08896C12.9554 6.55118 12.7639 6.09081 12.381 5.70784C11.998 5.32488 11.5376 5.1334 10.9998 5.1334C10.4621 5.1334 10.0017 5.32488 9.61872 5.70784C9.23576 6.09081 9.04427 6.55118 9.04427 7.08896C9.04427 7.62674 9.23576 8.08711 9.61872 8.47007C10.0017 8.85304 10.4621 9.04452 10.9998 9.04452Z" fill="white"/>
</g>
</g>
</svg>
