<svg width="23" height="22" viewBox="0 0 23 22" fill="none" xmlns="http://www.w3.org/2000/svg">
<mask id="mask0_4902_50847" style="mask-type:alpha" maskUnits="userSpaceOnUse" x="0" y="0" width="23" height="22">
<rect x="0.857422" width="22" height="22" fill="#D9D9D9"/>
</mask>
<g mask="url(#mask0_4902_50847)">
<path d="M5.72249 18.7918C5.25945 18.7918 4.86751 18.6314 4.54668 18.3105C4.22585 17.9897 4.06543 17.5978 4.06543 17.1347V4.86555C4.06543 4.40252 4.22585 4.01058 4.54668 3.68975C4.86751 3.36891 5.25945 3.2085 5.72249 3.2085H17.9917C18.4547 3.2085 18.8466 3.36891 19.1675 3.68975C19.4883 4.01058 19.6487 4.40252 19.6487 4.86555V17.1347C19.6487 17.5978 19.4883 17.9897 19.1675 18.3105C18.8466 18.6314 18.4547 18.7918 17.9917 18.7918H5.72249ZM5.72249 17.4168H17.9917C18.0622 17.4168 18.1268 17.3874 18.1856 17.3287C18.2444 17.2699 18.2737 17.2052 18.2737 17.1347V4.86555C18.2737 4.79503 18.2444 4.73038 18.1856 4.67161C18.1268 4.61285 18.0622 4.58347 17.9917 4.58347H5.72249C5.65197 4.58347 5.58732 4.61285 5.52854 4.67161C5.46979 4.73038 5.44041 4.79503 5.44041 4.86555V17.1347C5.44041 17.2052 5.46979 17.2699 5.52854 17.3287C5.58732 17.3874 5.65197 17.4168 5.72249 17.4168ZM7.04462 15.3543H16.74L13.7257 11.3351L11.1519 14.6844L9.31862 12.3399L7.04462 15.3543Z" fill="white"/>
</g>
</svg>
