<svg width="22" height="22" viewBox="0 0 22 22" fill="none" xmlns="http://www.w3.org/2000/svg">
<g id="play_video_300">
<mask id="mask0_5705_44660" style="mask-type:alpha" maskUnits="userSpaceOnUse" x="0" y="0" width="22" height="22">
<rect id="Bounding box" width="22" height="22" fill="#D9D9D9"/>
</mask>
<g mask="url(#mask0_5705_44660)">
<path id="play_circle" d="M8.93752 14.7032L14.7019 11.0013L8.93752 7.29939V14.7032ZM11.0015 19.7096C9.79709 19.7096 8.66498 19.481 7.60519 19.0239C6.54539 18.5668 5.62351 17.9465 4.83956 17.1629C4.0556 16.3793 3.43496 15.4578 2.97765 14.3984C2.52034 13.3391 2.29169 12.2073 2.29169 11.0028C2.29169 9.79838 2.52024 8.66626 2.97735 7.60647C3.43447 6.54667 4.05482 5.62479 4.83842 4.84084C5.62203 4.05688 6.5435 3.43624 7.60283 2.97893C8.66215 2.52162 9.79402 2.29297 10.9985 2.29297C12.2029 2.29297 13.335 2.52152 14.3948 2.97864C15.4546 3.43575 16.3765 4.0561 17.1604 4.8397C17.9444 5.62331 18.565 6.54478 19.0223 7.60411C19.4797 8.66343 19.7083 9.79531 19.7083 10.9997C19.7083 12.2042 19.4798 13.3363 19.0226 14.3961C18.5655 15.4559 17.9452 16.3778 17.1616 17.1617C16.378 17.9457 15.4565 18.5663 14.3972 19.0236C13.3379 19.4809 12.206 19.7096 11.0015 19.7096ZM11 18.3346C13.0472 18.3346 14.7813 17.6242 16.2021 16.2034C17.6229 14.7825 18.3333 13.0485 18.3333 11.0013C18.3333 8.95406 17.6229 7.22003 16.2021 5.7992C14.7813 4.37836 13.0472 3.66795 11 3.66795C8.95278 3.66795 7.21875 4.37836 5.79791 5.7992C4.37708 7.22003 3.66666 8.95406 3.66666 11.0013C3.66666 13.0485 4.37708 14.7825 5.79791 16.2034C7.21875 17.6242 8.95278 18.3346 11 18.3346Z" fill="white"/>
</g>
</g>
</svg>
