<svg width="12" height="12" viewBox="0 0 12 12" fill="none" xmlns="http://www.w3.org/2000/svg">
<path d="M11.0667 12L6.86667 7.8C6.53333 8.06667 6.15 8.27778 5.71667 8.43333C5.28333 8.58889 4.82222 8.66667 4.33333 8.66667C3.12222 8.66667 2.09733 8.24733 1.25867 7.40867C0.419556 6.56956 0 5.54444 0 4.33333C0 3.12222 0.419556 2.09711 1.25867 1.258C2.09733 0.419333 3.12222 0 4.33333 0C5.54444 0 6.56956 0.419333 7.40867 1.258C8.24733 2.09711 8.66667 3.12222 8.66667 4.33333C8.66667 4.82222 8.58889 5.28333 8.43333 5.71667C8.27778 6.15 8.06667 6.53333 7.8 6.86667L12 11.0667L11.0667 12ZM4.33333 7.33333C5.16667 7.33333 5.87511 7.04178 6.45867 6.45867C7.04178 5.87511 7.33333 5.16667 7.33333 4.33333C7.33333 3.5 7.04178 2.79156 6.45867 2.208C5.87511 1.62489 5.16667 1.33333 4.33333 1.33333C3.5 1.33333 2.79156 1.62489 2.208 2.208C1.62489 2.79156 1.33333 3.5 1.33333 4.33333C1.33333 5.16667 1.62489 5.87511 2.208 6.45867C2.79156 7.04178 3.5 7.33333 4.33333 7.33333Z" fill="white"/>
</svg>
