<svg width="22" height="22" viewBox="0 0 22 22" fill="none" xmlns="http://www.w3.org/2000/svg">
<mask id="mask0_5865_692" style="mask-type:alpha" maskUnits="userSpaceOnUse" x="0" y="0" width="22" height="22">
<rect width="22" height="22" fill="#D9D9D9"/>
</mask>
<g mask="url(#mask0_5865_692)">
<path d="M8.88465 19.7081L8.5356 16.9158C8.28998 16.8336 8.03819 16.7184 7.78023 16.5703C7.52226 16.4222 7.29162 16.2636 7.0883 16.0943L4.50225 17.1873L2.3869 13.5206L4.62391 11.8301C4.60275 11.6938 4.58777 11.5569 4.57895 11.4194C4.57013 11.2819 4.56573 11.145 4.56573 11.0086C4.56573 10.8782 4.57013 10.7457 4.57895 10.6111C4.58777 10.4765 4.60275 10.3293 4.62391 10.1695L2.3869 8.47898L4.50225 4.82998L7.07948 5.91413C7.30043 5.73901 7.53635 5.57889 7.78726 5.43375C8.03818 5.28859 8.28469 5.17195 8.52678 5.08381L8.88465 2.2915H13.1153L13.4644 5.09263C13.7394 5.19252 13.9882 5.30916 14.211 5.44255C14.4337 5.57594 14.6584 5.73313 14.8852 5.91413L17.4977 4.82998L19.6131 8.47898L17.3408 10.1959C17.3737 10.344 17.3917 10.4824 17.3946 10.6111C17.3975 10.7398 17.399 10.8694 17.399 10.9998C17.399 11.1244 17.3961 11.251 17.3902 11.3797C17.3843 11.5084 17.3632 11.6556 17.3267 11.8213L19.5814 13.5206L17.466 17.1873L14.8852 16.0855C14.6584 16.2665 14.4269 16.4266 14.1907 16.5659C13.9545 16.7052 13.7124 16.8189 13.4644 16.907L13.1153 19.7081H8.88465ZM11.0106 13.7498C11.7733 13.7498 12.4223 13.4821 12.9576 12.9468C13.4929 12.4115 13.7605 11.7625 13.7605 10.9998C13.7605 10.2371 13.4929 9.58811 12.9576 9.05279C12.4223 8.51749 11.7733 8.24984 11.0106 8.24984C10.2385 8.24984 9.58711 8.51749 9.0565 9.05279C8.5259 9.58811 8.2606 10.2371 8.2606 10.9998C8.2606 11.7625 8.5259 12.4115 9.0565 12.9468C9.58711 13.4821 10.2385 13.7498 11.0106 13.7498ZM11.0106 12.3748C10.6286 12.3748 10.304 12.2411 10.0366 11.9738C9.76924 11.7064 9.63556 11.3818 9.63556 10.9998C9.63556 10.6179 9.76924 10.2932 10.0366 10.0259C10.304 9.7585 10.6286 9.62482 11.0106 9.62482C11.3925 9.62482 11.7172 9.7585 11.9845 10.0259C12.2519 10.2932 12.3856 10.6179 12.3856 10.9998C12.3856 11.3818 12.2519 11.7064 11.9845 11.9738C11.7172 12.2411 11.3925 12.3748 11.0106 12.3748ZM10.0833 18.3332H11.8849L12.2146 15.8775C12.6823 15.7553 13.1098 15.5817 13.497 15.3566C13.8842 15.1316 14.2577 14.8422 14.6173 14.4884L16.8949 15.4457L17.7974 13.8873L15.809 12.3889C15.8854 12.1515 15.9374 11.9188 15.965 11.6908C15.9926 11.4629 16.0064 11.2325 16.0064 10.9998C16.0064 10.7613 15.9926 10.5309 15.965 10.3088C15.9374 10.0867 15.8854 9.85986 15.809 9.62834L17.8151 8.11232L16.9125 6.55398L14.6085 7.5253C14.3018 7.19741 13.9342 6.90772 13.5058 6.65624C13.0775 6.40473 12.6441 6.22669 12.2058 6.12209L11.9167 3.66648H10.0974L9.79423 6.11327C9.32649 6.22374 8.89459 6.39298 8.49855 6.62097C8.1025 6.84896 7.72468 7.14276 7.36507 7.50239L5.08749 6.55398L4.18492 8.11232L6.16458 9.58781C6.08819 9.80521 6.03472 10.0314 6.00416 10.2665C5.9736 10.5015 5.95833 10.7489 5.95833 11.0086C5.95833 11.2472 5.9736 11.4811 6.00416 11.7102C6.03472 11.9394 6.08525 12.1656 6.15575 12.3889L4.18492 13.8873L5.08749 15.4457L7.35624 14.4831C7.7041 14.8404 8.07606 15.1331 8.4721 15.361C8.86815 15.589 9.30592 15.7641 9.78541 15.8864L10.0833 18.3332Z" fill="white"/>
</g>
</svg>
