<svg width="18" height="18" viewBox="0 0 18 18" fill="none" xmlns="http://www.w3.org/2000/svg">
<mask id="mask0_3652_124973" style="mask-type:alpha" maskUnits="userSpaceOnUse" x="0" y="0" width="18" height="18">
<rect width="18" height="18" fill="#D9D9D9"/>
</mask>
<g mask="url(#mask0_3652_124973)">
<path d="M6 13.4625C6.125 13.475 6.247 13.4845 6.366 13.491C6.4845 13.497 6.6125 13.5 6.75 13.5C6.8875 13.5 7.0155 13.497 7.134 13.491C7.253 13.4845 7.375 13.475 7.5 13.4625V15H15V7.5H13.4625C13.475 7.375 13.4845 7.253 13.491 7.134C13.497 7.0155 13.5 6.8875 13.5 6.75C13.5 6.6125 13.497 6.4845 13.491 6.366C13.4845 6.247 13.475 6.125 13.4625 6H15C15.4125 6 15.7657 6.14675 16.0597 6.44025C16.3533 6.73425 16.5 7.0875 16.5 7.5V15C16.5 15.4125 16.3533 15.7657 16.0597 16.0597C15.7657 16.3533 15.4125 16.5 15 16.5H7.5C7.0875 16.5 6.7345 16.3533 6.441 16.0597C6.147 15.7657 6 15.4125 6 15V13.4625ZM6.75 12C5.2875 12 4.04675 11.4905 3.02775 10.4715C2.00925 9.453 1.5 8.2125 1.5 6.75C1.5 5.2875 2.00925 4.04675 3.02775 3.02775C4.04675 2.00925 5.2875 1.5 6.75 1.5C8.2125 1.5 9.45325 2.00925 10.4722 3.02775C11.4908 4.04675 12 5.2875 12 6.75C12 8.2125 11.4908 9.453 10.4722 10.4715C9.45325 11.4905 8.2125 12 6.75 12ZM6.75 10.5C7.7875 10.5 8.672 10.1342 9.4035 9.40275C10.1345 8.67175 10.5 7.7875 10.5 6.75C10.5 5.7125 10.1345 4.82825 9.4035 4.09725C8.672 3.36575 7.7875 3 6.75 3C5.7125 3 4.82825 3.36575 4.09725 4.09725C3.36575 4.82825 3 5.7125 3 6.75C3 7.7875 3.36575 8.67175 4.09725 9.40275C4.82825 10.1342 5.7125 10.5 6.75 10.5Z" fill="white"/>
</g>
</svg>
