<svg width="560" height="376" viewBox="0 0 560 376" fill="none" xmlns="http://www.w3.org/2000/svg">
<path d="M533.84 309.281C525.277 324.292 512.527 340.476 495.402 339.597L48.434 335.179C11.0001 284.032 -1.7501 215.382 16.8831 154.604C19.1861 147.088 22.4312 139.907 26.2416 133.061C73.3272 48.2272 170.304 74.209 204.179 34.0534C209.35 27.919 213.537 20.8635 219.609 15.6504C228.151 8.3018 239.142 4.44953 250.176 2.50246C301.197 -6.50011 350.376 21.9522 401.482 31.5829C427.359 36.3563 443.208 33.7602 461.338 39.2246C482.421 45.6102 500.008 62.8197 506.979 83.9025C510.538 94.6428 511.439 106.095 514.537 116.982C523.1 147.004 547.47 170.39 556.305 200.329C567.066 236.904 552.725 276.223 533.84 309.281Z" fill="#323940"/>
<g opacity="0.3">
<path d="M410.799 318.932C410.758 318.932 410.716 318.932 410.653 318.932C410.276 318.869 410.025 318.513 410.088 318.136C426.313 219.087 443.607 148.406 458.785 119.095C459.12 118.446 459.372 117.965 459.455 117.735C459.581 117.379 459.979 117.19 460.355 117.316C460.711 117.441 460.9 117.839 460.774 118.216C460.649 118.53 460.418 118.991 460.041 119.723C444.925 148.909 427.695 219.443 411.49 318.345C411.407 318.68 411.134 318.911 410.799 318.932Z" fill="#7C8589"/>
<path d="M471.157 112.48C469.336 115.788 458.931 122.78 457.967 122.257C457.025 121.734 457.36 109.193 459.182 105.885C461.003 102.577 465.149 101.384 468.457 103.205C471.764 105.026 472.979 109.193 471.157 112.48Z" fill="#7C8589"/>
<path d="M450.851 124.456C452.421 127.973 451.73 140.786 450.725 141.247C449.72 141.707 439.692 133.71 438.101 130.171C436.53 126.654 438.101 122.509 441.618 120.939C445.135 119.368 449.281 120.939 450.851 124.456Z" fill="#7C8589"/>
<path d="M466.992 144.597C463.202 145.35 450.871 141.77 450.662 140.682C450.452 139.593 460.502 131.616 464.291 130.883C468.081 130.13 471.744 132.6 472.498 136.39C473.252 140.179 470.781 143.864 466.992 144.597Z" fill="#7C8589"/>
<path d="M426.376 191.892C429.642 197.482 430.794 218.984 429.202 219.926C427.611 220.868 409.418 209.332 406.131 203.742C402.865 198.152 404.728 190.971 410.339 187.705C415.908 184.418 423.11 186.302 426.376 191.892Z" fill="#7C8589"/>
<path d="M456.942 222.584C450.766 224.51 429.537 220.783 428.992 219.025C428.448 217.266 443.773 202.129 449.95 200.203C456.126 198.277 462.721 201.731 464.647 207.907C466.573 214.084 463.118 220.658 456.942 222.584Z" fill="#7C8589"/>
<path d="M412.788 217.915C418.19 223.714 425.35 249.068 423.696 250.617C422.042 252.167 397.212 243.29 391.81 237.511C386.409 231.712 386.702 222.647 392.501 217.224C398.279 211.802 407.366 212.116 412.788 217.915Z" fill="#7C8589"/>
<path d="M455.958 257.673C448.191 259.243 422.837 252.02 422.376 249.801C421.937 247.581 442.496 231.084 450.263 229.534C458.031 227.964 465.61 232.989 467.18 240.756C468.75 248.523 463.725 256.102 455.958 257.673Z" fill="#7C8589"/>
<path d="M406.508 250.324C411.91 256.123 419.07 281.477 417.416 283.026C415.762 284.575 390.931 275.698 385.53 269.92C380.128 264.142 380.421 255.034 386.221 249.633C392.02 244.231 401.086 244.545 406.508 250.324Z" fill="#7C8589"/>
<path d="M449.676 290.103C441.909 291.673 416.555 284.45 416.095 282.231C415.655 280.012 436.214 263.514 443.982 261.965C451.749 260.395 459.328 265.419 460.898 273.187C462.468 280.954 457.444 288.533 449.676 290.103Z" fill="#7C8589"/>
<path d="M388.942 292.343C396.144 295.63 412.432 316.378 411.49 318.43C410.548 320.481 384.21 321.759 377.008 318.451C369.806 315.164 366.623 306.643 369.91 299.441C373.218 292.218 381.719 289.056 388.942 292.343Z" fill="#7C8589"/>
<path d="M444.547 322.031C437.031 324.564 410.986 320.565 410.254 318.43C409.542 316.294 427.882 297.347 435.398 294.835C442.914 292.301 451.058 296.342 453.571 303.858C456.104 311.353 452.063 319.497 444.547 322.031Z" fill="#7C8589"/>
<path d="M443.334 145.455C444.946 149.035 444.213 162.057 443.208 162.518C442.182 162.978 431.986 154.855 430.395 151.275C428.783 147.695 430.395 143.487 433.975 141.896C437.514 140.263 441.722 141.875 443.334 145.455Z" fill="#7C8589"/>
<path d="M459.246 166.224C455.394 166.978 442.874 163.356 442.665 162.246C442.455 161.157 452.672 153.034 456.504 152.28C460.356 151.527 464.082 154.018 464.836 157.87C465.611 161.723 463.098 165.449 459.246 166.224Z" fill="#7C8589"/>
<path d="M434.184 165.218C436.864 170.096 437.366 188.625 435.985 189.379C434.582 190.153 419.215 179.832 416.514 174.954C413.834 170.075 415.593 163.941 420.471 161.261C425.37 158.561 431.504 160.34 434.184 165.218Z" fill="#7C8589"/>
<path d="M459.308 194.425C453.844 195.492 436.048 190.342 435.734 188.793C435.42 187.223 449.929 175.708 455.393 174.64C460.858 173.572 466.154 177.131 467.243 182.596C468.332 188.039 464.773 193.336 459.308 194.425Z" fill="#7C8589"/>
</g>
<path d="M61.2907 299.482C61.3117 299.482 61.3326 299.482 61.3535 299.461C61.542 299.398 61.6466 299.209 61.5838 299.042C47.3681 251.203 34.3877 217.412 25.0082 203.908C24.7989 203.615 24.6523 203.384 24.5895 203.28C24.5058 203.112 24.2964 203.049 24.1289 203.133C23.9614 203.217 23.8986 203.426 23.9824 203.594C24.0661 203.74 24.2127 203.95 24.443 204.285C33.7805 217.747 46.74 251.454 60.9348 299.23C60.9767 299.398 61.1442 299.503 61.2907 299.482Z" fill="#7C8589"/>
<path d="M18.4555 201.416C19.5652 202.924 25.197 205.75 25.6367 205.436C26.0763 205.122 25.1342 198.967 24.0246 197.439C22.9149 195.931 20.7795 195.575 19.2302 196.685C17.6809 197.774 17.3459 199.888 18.4555 201.416Z" fill="#7C8589"/>
<path d="M29.3002 206.065C28.7349 207.907 29.8655 214.167 30.4098 214.334C30.9332 214.502 35.4345 209.938 36.0207 208.095C36.586 206.253 35.5392 204.327 33.6968 203.762C31.8335 203.217 29.8864 204.243 29.3002 206.065Z" fill="#7C8589"/>
<path d="M22.5166 216.992C24.4428 217.118 30.3677 214.606 30.4096 214.061C30.4515 213.517 24.9452 210.188 23.0191 210.062C21.093 209.937 19.4181 211.36 19.2715 213.287C19.125 215.192 20.5905 216.846 22.5166 216.992Z" fill="#7C8589"/>
<path d="M45.6721 237.824C44.395 240.776 45.1487 251.454 46.0071 251.809C46.8655 252.165 55.219 245.382 56.4962 242.409C57.7733 239.457 56.3915 236.024 53.4185 234.746C50.4247 233.49 46.9702 234.851 45.6721 237.824Z" fill="#7C8589"/>
<path d="M32.358 254.825C35.5613 255.39 45.9038 252.25 46.0713 251.35C46.2387 250.449 37.6549 243.917 34.4517 243.352C31.2484 242.787 28.1917 244.88 27.6055 248.042C27.0193 251.224 29.1548 254.26 32.358 254.825Z" fill="#7C8589"/>
<path d="M54.0685 249.8C51.7236 252.982 49.7347 265.941 50.6559 266.59C51.5771 267.26 63.406 261.356 65.73 258.174C68.0748 254.992 67.342 250.532 64.1388 248.208C60.9146 245.905 56.3924 246.617 54.0685 249.8Z" fill="#7C8589"/>
<path d="M35.0158 272.055C38.9937 272.348 51.1786 267.239 51.2623 266.13C51.3461 264.999 40.0824 258.132 36.1045 257.839C32.1266 257.546 28.6722 260.477 28.3791 264.413C28.065 268.328 31.0379 271.762 35.0158 272.055Z" fill="#7C8589"/>
<path d="M59.1973 265.418C56.8524 268.601 54.8635 281.56 55.7847 282.209C56.7059 282.879 68.5348 276.975 70.8588 273.793C73.2036 270.61 72.4709 266.151 69.2676 263.827C66.0434 261.524 61.5421 262.215 59.1973 265.418Z" fill="#7C8589"/>
<path d="M40.1446 287.652C44.1225 287.946 56.3074 282.837 56.3911 281.727C56.4749 280.597 45.2112 273.73 41.2333 273.437C37.2554 273.144 33.8009 276.075 33.5078 280.011C33.1938 283.926 36.1667 287.359 40.1446 287.652Z" fill="#7C8589"/>
<path d="M70.545 285.036C67.1533 287.108 60.3281 298.309 60.9144 299.272C61.5006 300.235 74.7113 299.23 78.103 297.179C81.4947 295.106 82.5415 290.73 80.4688 287.359C78.3752 284.031 73.9367 282.984 70.545 285.036Z" fill="#7C8589"/>
<path d="M44.6887 303.082C48.5829 303.878 61.333 300.319 61.5424 299.209C61.7727 298.099 51.4511 289.892 47.557 289.118C43.6629 288.322 39.8525 290.814 39.0569 294.687C38.2613 298.539 40.7737 302.287 44.6887 303.082Z" fill="#7C8589"/>
<path d="M34.3676 215.966C33.7814 217.83 34.9538 224.194 35.4981 224.362C36.0425 224.529 40.6066 219.902 41.1928 218.039C41.779 216.176 40.7113 214.208 38.827 213.642C36.9427 213.056 34.9329 214.103 34.3676 215.966Z" fill="#7C8589"/>
<path d="M27.7086 227.168C29.6766 227.315 35.6853 224.761 35.7272 224.195C35.7691 223.651 30.1791 220.259 28.2111 220.134C26.2431 219.987 24.5472 221.453 24.4007 223.4C24.2751 225.347 25.7406 227.022 27.7086 227.168Z" fill="#7C8589"/>
<path d="M40.1448 225.137C39.098 227.712 39.9983 236.861 40.752 237.154C41.4848 237.447 48.5193 231.418 49.5661 228.842C50.613 226.267 49.3359 223.357 46.7398 222.331C44.1227 221.326 41.1707 222.582 40.1448 225.137Z" fill="#7C8589"/>
<path d="M29.4253 241.069C32.2098 241.258 40.7518 237.636 40.8146 236.84C40.8774 236.045 32.9217 231.271 30.1372 231.062C27.3526 230.873 24.924 232.946 24.7356 235.71C24.5263 238.494 26.6408 240.881 29.4253 241.069Z" fill="#7C8589"/>
<path d="M274.064 362.041C413.835 362.041 527.141 352.002 527.141 339.618C527.141 327.235 413.835 317.196 274.064 317.196C134.293 317.196 20.9868 327.235 20.9868 339.618C20.9868 352.002 134.293 362.041 274.064 362.041Z" fill="#949D9F"/>
<path d="M450.764 334.089C450.764 334.089 403.05 305.763 464.854 232.695C464.854 232.695 511.018 319.79 450.764 334.089Z" fill="#656C74"/>
<path d="M464.875 232.507L445.446 329.526C434.999 319.12 416.784 289.349 464.875 232.507Z" fill="#949D9F"/>
<path d="M446.409 325.548C446.43 325.527 446.451 325.506 446.451 325.464L465.063 232.528C465.084 232.445 465.021 232.34 464.938 232.319C464.854 232.298 464.749 232.361 464.728 232.445L446.116 325.381C446.095 325.464 446.158 325.569 446.241 325.59C446.304 325.611 446.367 325.59 446.409 325.548Z" fill="#060633"/>
<path d="M450.661 331.683C450.661 331.683 456.23 272.496 555.279 298.876C555.279 298.876 492.115 383.458 450.661 331.683Z" fill="#949D9F"/>
<path d="M555.279 298.876L450.661 331.683C450.661 331.683 482.547 387.059 555.279 298.876Z" fill="#656C74"/>
<path d="M410.48 286.341C410.48 286.341 398.265 299.717 398.587 303.494C398.908 307.291 399.306 317.765 399.274 319.592C399.241 321.419 396.926 330.826 397.56 332.508C398.193 334.191 403.093 323.103 403.093 323.103C403.093 323.103 400.254 333.131 401.876 334.175C403.501 335.197 407.5 324.715 407.5 324.715C407.5 324.715 404.298 334.792 406.022 335.235C407.745 335.678 410.999 325.922 410.999 325.922C410.999 325.922 408.626 333.788 409.982 334.111C411.339 334.434 417.337 322.023 415.66 316.83C411.715 304.555 414.902 295.907 414.902 295.907L410.48 286.341Z" fill="#FF9D82"/>
<path d="M418.416 192.728C418.416 192.728 439.308 238.839 440.946 249.119C442.583 259.421 407.218 306.406 407.218 306.406L400.71 297.518C400.71 297.518 419.29 249.637 418.386 245.572C417.459 241.525 401.574 211.434 401.574 211.434L418.416 192.728Z" fill="#FF9D82"/>
<path d="M343.136 78.7781C342.277 79.5981 341.457 80.443 340.694 81.3566C334.389 88.7718 335.43 101.055 326.457 106.293C320.029 110.036 311.963 107.558 304.532 107.394C299.053 107.275 293.416 108.55 288.956 111.751C284.496 114.951 281.39 120.22 281.481 125.698C281.581 131.094 284.632 136.002 285.369 141.334C286.026 146.195 284.638 151.318 281.587 155.162C278.342 159.281 273.506 161.813 269.586 165.298C265.665 168.803 262.542 174.239 264.393 179.155C266.357 184.418 273.003 186.567 275.581 191.575C278.354 196.96 275.515 203.349 273.522 209.065C271.528 214.78 271.14 222.568 276.452 225.447C278.808 226.731 281.683 226.593 284.328 226.223C286.078 225.974 287.942 225.632 289.576 226.34C290.564 226.774 291.353 227.525 292.072 228.332C296.338 233.086 299.318 239.775 305.427 241.618C308.595 242.561 311.977 241.969 315.216 241.341C321.993 240.031 329.113 238.439 334.179 233.784C342.972 225.667 342.62 211.306 350.122 201.989C356.092 194.562 366.015 191.647 375.452 190.242C384.889 188.836 394.682 188.517 403.375 184.619C408.59 182.293 413.233 178.732 416.845 174.312C419.213 171.411 421.196 167.946 421.23 164.183C421.334 156.073 412.822 150.438 410.819 142.583C409.172 136.236 411.292 129.881 411.059 123.484C410.836 117.213 407.621 111.196 404.86 105.685C399.271 94.5108 390.32 78.1665 378.746 72.4402C367.207 66.7805 352.25 70.1879 343.136 78.7781Z" fill="#191E21"/>
<path d="M389.428 275.6C389.428 275.6 401.356 293.332 405.57 313.122C409.785 332.913 402 358.989 402 358.989L357.38 360.789C357.38 360.789 359.735 331.012 358.027 330.402C356.32 329.793 345 361.189 345 361.189L294.618 362.028C294.618 362.028 288.505 300.644 325.841 269.316L357.38 274.4L389.428 275.6Z" fill="#1C5750"/>
<path d="M390.265 267.1L389.428 275.601C389.428 275.601 371.733 289.72 325.838 269.337L326.572 260.826L368.501 262.305L390.265 267.1Z" fill="#21272C"/>
<path d="M384.245 162.918C384.245 162.918 401.121 163.949 409.062 170.685C414.752 175.495 425.891 200.596 425.891 200.596L409.136 212.221C409.136 212.221 411.411 226.919 396.306 232.689L390.285 267.123C390.285 267.123 361.693 280.169 326.591 260.849C326.591 260.849 326.014 195.155 318.914 200.178C311.813 205.201 307.381 209.834 307.381 209.834L285.328 183.195C285.328 183.195 314.584 159.128 323.808 155.829C345.444 148.051 361.245 159.138 361.245 159.138L384.245 162.918Z" fill="white"/>
<path d="M305.29 207.334C305.29 207.334 289.471 222.48 290.666 227.226C291.86 231.972 313.169 272.149 315.819 279.626C318.47 287.103 317.072 291.257 317.072 291.257L303.709 296.21C303.709 296.21 304.038 286.039 301.558 282.807C299.078 279.576 261.153 231.892 263.487 218.238C265.821 204.583 287.266 185.489 287.266 185.489L305.29 207.334Z" fill="#FF9D82"/>
<path d="M394.134 111.445C394.134 111.445 396.247 107.929 398.095 109.247C402.793 112.592 398.082 117.493 395.088 118.628L394.134 111.445Z" fill="#FF7863"/>
<path d="M363.691 71.315C349.804 72.8293 339.062 84.7092 338.949 98.6671C338.896 103.269 339.966 107.561 341.882 111.389C346.142 120.897 349.637 128.562 353.828 134.066C358.076 139.639 360.194 146.537 359.507 153.517L359.08 157.851C375.602 165.243 382.207 162.906 382.207 162.906L381.353 143.383C398.758 140.533 395.027 108.356 394.599 98.8263L394.578 98.8242C394.571 98.4659 394.564 98.1076 394.558 97.7493C393.857 81.7969 379.831 69.5599 363.691 71.315Z" fill="#FF9D82"/>
<path d="M362.72 99.5362C358.091 105.518 353.136 111.404 349.775 118.184C349.407 118.926 346.774 124.515 347.642 125.105C342.974 121.869 339.867 116.892 337.227 111.878C332.633 103.199 333.392 92.5029 338.2 84.0566C342.954 75.7312 351.318 71.1274 360.709 69.9698C370.763 68.7091 381.942 71.6195 388.481 79.774C394.627 87.427 395.325 97.4255 396.381 106.786C395.184 96.2966 380.668 89.0393 372.036 85.6856C372.28 85.7727 366.127 95.0543 365.788 95.5048C364.751 96.8542 363.736 98.1848 362.72 99.5362Z" fill="#191E21"/>
<path d="M350.679 118.82C350.198 117.931 349.379 117.282 348.422 116.957C346.471 116.26 343.047 115.565 340.83 117.997C337.554 121.566 344.834 130.32 351.407 125.518C351.409 125.498 353.269 123.493 350.679 118.82Z" fill="#FF9D82"/>
<path d="M386.48 128.91C386.48 128.91 382.033 125.148 380.829 125.619C379.626 126.089 379.095 127.636 379.095 127.636C379.095 127.636 378.203 126.223 376.697 126.348C375.191 126.473 372.104 131.975 372.104 131.975C372.104 131.975 376.027 133.792 380.563 132.808C384.43 131.99 386.48 128.91 386.48 128.91Z" fill="#FF7863"/>
<path d="M358.351 111.433C358.053 111.467 357.767 111.376 357.536 111.164C357.131 110.787 357.109 110.154 357.488 109.729C357.604 109.614 360.35 106.729 364.866 106.374C365.418 106.323 365.902 106.75 365.952 107.302C366.003 107.853 365.533 108.354 365.025 108.388C361.271 108.692 358.996 111.076 358.971 111.116C358.807 111.289 358.586 111.393 358.351 111.433Z" fill="#191E21"/>
<path d="M382.995 104.289C382.735 104.158 382.526 103.927 382.45 103.625C382.314 103.086 382.643 102.529 383.182 102.393C383.334 102.345 387.172 101.398 391.189 103.54C391.69 103.799 391.862 104.405 391.602 104.905C391.342 105.406 390.715 105.576 390.236 105.318C386.896 103.558 383.706 104.338 383.662 104.355C383.424 104.416 383.195 104.393 382.995 104.289Z" fill="#191E21"/>
<path d="M378.062 124.251C380.915 123.691 381.762 121.502 381.801 120.244C381.801 120.033 381.738 119.817 381.586 119.655C378.875 116.632 378.95 112.032 378.935 111.967C378.939 111.505 378.578 111.111 378.094 111.106C377.632 111.102 377.239 111.463 377.235 111.926C377.235 112.136 377.138 116.965 380.054 120.471C379.924 121.153 379.291 122.668 376.557 122.651C376.074 122.646 375.7 123.03 375.696 123.492C375.693 123.955 376.074 124.35 376.537 124.353C377.124 124.369 377.612 124.333 378.062 124.251Z" fill="#FF7863"/>
<path d="M372.1 132.228C372.038 132.222 371.998 132.197 371.94 132.149C371.864 132.057 371.879 131.911 371.97 131.836C377.297 127.312 386.438 128.696 386.521 128.704C386.646 128.717 386.738 128.852 386.705 128.975C386.693 129.1 386.559 129.171 386.434 129.159C386.351 129.15 377.439 127.789 372.252 132.18C372.229 132.198 372.163 132.234 372.1 132.228Z" fill="#21272C"/>
<path d="M311.905 271.751C311.905 271.751 321.458 288.386 319.978 291.88C318.498 295.373 312.746 305.073 312.194 306.828C311.643 308.583 310.924 318.232 309.797 319.635C308.67 321.039 307.481 308.972 307.481 308.972C307.481 308.972 307.063 319.408 305.187 319.875C303.31 320.343 302.796 309.121 302.796 309.121C302.796 309.121 302.701 319.694 300.924 319.582C299.147 319.47 299.107 309.199 299.107 309.199C299.107 309.199 298.908 317.406 297.51 317.289C296.112 317.172 294.301 303.53 297.513 299.113C305.105 288.669 303.771 282.563 303.771 282.563L311.905 271.751Z" fill="#FF9D82"/>
<path d="M317.926 283.662C317.926 283.662 322.517 293.434 322.233 296.961C321.948 300.489 322.265 307.736 320.746 307.565C319.248 307.397 318.16 297.297 317.118 296.773C316.076 296.25 316.496 291.768 316.496 291.768L317.926 283.662Z" fill="#FF9D82"/>
<path d="M401.666 295.087C401.666 295.087 398.367 306.796 399.032 310.291C399.7 313.764 400.261 323.876 401.744 323.559C403.228 323.221 404.091 309.548 405.08 308.909C406.069 308.27 404.167 304.506 404.167 304.506L401.666 295.087Z" fill="#FF9D82"/>
<path d="M352.481 223.533C340.209 222.324 336.313 209.549 336.263 209.418C336.182 209.178 336.333 208.92 336.571 208.859C336.81 208.777 337.069 208.929 337.129 209.166C337.159 209.295 340.904 221.466 352.551 222.614C364.239 223.765 369.577 215.708 369.627 215.628C369.754 215.409 370.054 215.355 370.25 215.5C370.469 215.627 370.523 215.927 370.378 216.123C370.368 216.227 364.732 224.739 352.481 223.533Z" fill="#ABB4B4"/>
<path d="M409.071 212.656C408.842 212.634 408.67 212.448 408.651 212.215C408.639 212.13 408.403 203.839 402.657 197.256C402.485 197.071 402.514 196.779 402.699 196.608C402.884 196.437 403.176 196.466 403.347 196.651C409.322 203.487 409.572 211.843 409.578 212.201C409.575 212.453 409.385 212.666 409.133 212.662C409.112 212.66 409.092 212.658 409.071 212.656Z" fill="#ABB4B4"/>
<path d="M365.163 124.942C367.427 124.829 369.201 123.529 369.127 122.039C369.052 120.549 367.157 119.433 364.893 119.547C362.63 119.66 360.855 120.959 360.929 122.449C361.004 123.939 362.899 125.055 365.163 124.942Z" fill="#FF9D82"/>
<path d="M388.5 121.663C390.764 121.55 392.539 120.25 392.464 118.76C392.39 117.271 390.494 116.155 388.231 116.268C385.967 116.381 384.193 117.68 384.267 119.17C384.341 120.66 386.237 121.776 388.5 121.663Z" fill="#FF9D82"/>
<path d="M365.995 283.895C361.578 283.46 358.347 279.523 358.782 275.106C359.217 270.689 363.154 267.458 367.571 267.894C371.988 268.329 375.219 272.265 374.784 276.682C374.349 281.1 370.412 284.33 365.995 283.895ZM367.212 271.54C364.795 271.302 362.644 273.067 362.406 275.484C362.167 277.901 363.933 280.053 366.35 280.291C368.767 280.529 370.918 278.763 371.156 276.346C371.394 273.929 369.629 271.778 367.212 271.54Z" fill="#94E4B0"/>
<path d="M385.614 113.341C384.614 113.243 383.547 112.759 382.41 111.91C382.214 111.765 382.16 111.465 382.326 111.271C382.472 111.075 382.769 111.041 382.965 111.187C384.415 112.276 385.68 112.674 386.721 112.356C388.152 111.929 388.751 110.326 388.753 110.305C388.841 110.061 389.105 109.94 389.328 110.025C389.572 110.112 389.693 110.377 389.608 110.6C389.579 110.681 388.838 112.649 386.975 113.202C386.539 113.348 386.094 113.388 385.614 113.341Z" fill="#21272C"/>
<path d="M364.372 116.697C363.372 116.599 362.304 116.115 361.168 115.266C360.972 115.121 360.917 114.821 361.084 114.627C361.229 114.431 361.527 114.397 361.723 114.543C363.172 115.632 364.438 116.03 365.479 115.712C366.909 115.285 367.509 113.682 367.511 113.661C367.598 113.417 367.863 113.296 368.086 113.381C368.329 113.468 368.451 113.733 368.366 113.956C368.337 114.037 367.596 116.005 365.732 116.558C365.318 116.706 364.851 116.744 364.372 116.697Z" fill="#21272C"/>
<path d="M132.36 312.12C132.36 312.12 134.578 313.113 138.125 312.514C138.125 312.514 148.211 316.645 147.919 319.681C147.919 319.681 148.386 320.571 143.774 320.454C139.176 320.323 132.009 320.221 131.82 320.119C131.63 320.002 129.849 318.849 132.36 312.12Z" fill="#060633"/>
<path d="M81.449 204.227C81.449 204.227 80.7922 208.007 80.2376 209.321C79.6975 210.634 80.15 212.313 79.318 212.269C78.5006 212.225 78.4569 209.496 78.4569 209.496C78.4569 209.496 76.2529 211.364 75.669 212.05C75.0852 212.736 73.7132 213.67 73.1877 213.291C72.6623 212.897 75.7128 209.832 75.7128 209.832C75.7128 209.832 72.8958 212.167 72.3265 211.904C71.7573 211.642 74.91 208.168 74.91 208.168C74.91 208.168 72.02 210.795 71.6113 210.81C71.2027 210.824 71.1735 210.299 71.9762 209.116C72.779 207.934 73.8883 206.942 73.8883 206.942C73.8883 206.942 71.7135 208.635 71.3924 208.752C71.0567 208.868 70.5166 208.781 71.8887 207.161C73.2461 205.54 76.7783 202.519 79.1575 201.716L81.449 204.227Z" fill="#FF9D82"/>
<path d="M138.111 312.515L140.067 302.604L132.667 301.611L132.345 312.909C132.345 312.909 136.651 313.901 138.111 312.515Z" fill="white"/>
<path d="M107.912 309.814L112.13 300.648L105.168 297.947L102.205 308.85C102.205 308.85 106.16 310.821 107.912 309.814Z" fill="white"/>
<path d="M102.395 308.092C102.395 308.092 104.322 309.581 107.898 309.814C107.898 309.814 116.728 316.193 115.75 319.068C115.75 319.068 115.998 320.046 111.547 318.849C107.095 317.652 100.162 315.886 100.001 315.74C99.8551 315.58 98.3955 314.047 102.395 308.092Z" fill="#21272C"/>
<path d="M162.369 237.316C163.128 236.995 163.23 235.404 164.033 235.244C164.442 234.995 164.851 234.762 165.274 234.543C165.537 234.412 165.799 234.309 166.062 234.236C165.464 233.565 164.602 232.412 164.602 232.412C164.602 232.412 167.784 234.514 167.887 233.74C167.989 232.967 165.785 231.332 164.588 230.719C163.391 230.091 159.567 228.544 159.567 228.544L157.29 231.098C157.786 233.142 159.158 235.258 160.443 236.689C160.822 236.382 161.917 237.491 162.369 237.316Z" fill="#FF9D82"/>
<path d="M131.558 234.353C131.558 234.353 141.264 259.648 141.994 271.266C142.723 282.87 140.826 308.209 140.826 308.209L130.346 308.165C130.346 308.165 131.149 278.433 129.368 270.04C127.587 261.647 118.626 247.445 118.1 247.445C117.589 247.445 122.26 286.125 112.641 307.245C112.641 307.245 101.65 304.881 102.161 304.107C102.687 303.333 107.124 285.556 105.372 271.368C103.621 257.181 98.2933 231.638 98.8188 229.828C99.3588 228.047 131.558 234.353 131.558 234.353Z" fill="#656C74"/>
<path d="M173.957 236.543C173.184 235.302 172.789 230.471 173.14 230.252C173.49 230.033 177.665 232.5 178.438 233.74C179.212 234.981 178.832 236.601 177.592 237.375C176.365 238.148 174.731 237.769 173.957 236.543Z" fill="#949D9F"/>
<path d="M175.665 227.275C175.432 228.136 173.417 230.311 173.169 230.238C172.921 230.165 172.323 227.26 172.556 226.413C172.79 225.552 173.68 225.056 174.541 225.29C175.402 225.523 175.899 226.413 175.665 227.275Z" fill="#949D9F"/>
<path d="M156.224 238.601C156.384 238.513 171.739 229.435 179.927 228.53L179.913 228.34C171.681 229.245 156.297 238.338 156.136 238.426L156.224 238.601Z" fill="#949D9F"/>
<path d="M188 226.296C187.839 226.442 182.074 231.215 180.41 229.916C178.746 228.617 178.892 226.676 179.972 226.092C181.709 225.143 188 226.296 188 226.296Z" fill="#656C74"/>
<path d="M181.769 219.597C180.893 219.437 178.543 217.612 178.587 217.364C178.631 217.116 181.477 216.255 182.353 216.415C183.229 216.576 183.812 217.422 183.652 218.298C183.491 219.189 182.659 219.758 181.769 219.597Z" fill="white"/>
<path d="M181.593 214.765C181.258 215.597 178.981 217.509 178.747 217.421C178.514 217.319 178.251 214.371 178.601 213.539C178.937 212.707 179.886 212.313 180.718 212.663C181.55 212.984 181.944 213.933 181.593 214.765Z" fill="white"/>
<path d="M177.288 213.626C177.93 214.239 178.894 217.056 178.719 217.246C178.543 217.436 175.697 216.589 175.055 215.962C174.413 215.349 174.384 214.312 175.011 213.67C175.624 213.028 176.646 213.013 177.288 213.626Z" fill="white"/>
<path d="M174.967 217.305C175.77 216.925 178.747 217.013 178.849 217.246C178.952 217.48 177.156 219.844 176.354 220.224C175.551 220.603 174.587 220.268 174.193 219.45C173.799 218.633 174.15 217.699 174.967 217.305Z" fill="white"/>
<path d="M177.39 220.998C177.346 220.107 178.557 217.393 178.806 217.378C179.054 217.363 180.572 219.918 180.616 220.823C180.659 221.713 179.988 222.472 179.098 222.53C178.207 222.574 177.434 221.888 177.39 220.998Z" fill="white"/>
<path d="M179.143 217.788C179.372 217.596 179.401 217.256 179.21 217.027C179.018 216.799 178.678 216.769 178.449 216.96C178.221 217.152 178.191 217.492 178.382 217.721C178.574 217.95 178.914 217.979 179.143 217.788Z" fill="#949D9F"/>
<path d="M157.846 238.891C168.486 231.345 177.784 218.982 177.886 218.851L177.74 218.734C177.652 218.851 168.355 231.199 157.743 238.731L157.846 238.891Z" fill="#949D9F"/>
<path d="M175.271 224.063C175.257 224.822 176.38 227.099 176.585 227.099C176.789 227.099 178.001 224.88 178.015 224.121C178.03 223.362 177.431 222.735 176.658 222.72C175.913 222.691 175.286 223.304 175.271 224.063Z" fill="white"/>
<path d="M179.271 225.041C178.527 225.187 176.527 226.748 176.571 226.953C176.615 227.172 179.038 227.887 179.782 227.741C180.526 227.595 181.023 226.88 180.877 226.135C180.745 225.391 180.03 224.895 179.271 225.041Z" fill="white"/>
<path d="M179.475 228.821C179.067 228.179 176.892 226.894 176.702 227.011C176.513 227.128 176.731 229.653 177.14 230.295C177.549 230.937 178.395 231.127 179.038 230.733C179.694 230.324 179.884 229.463 179.475 228.821Z" fill="white"/>
<path d="M176.016 230.135C176.469 229.522 176.907 227.041 176.732 226.909C176.557 226.778 174.28 227.873 173.827 228.486C173.375 229.099 173.491 229.96 174.104 230.412C174.688 230.865 175.549 230.733 176.016 230.135Z" fill="white"/>
<path d="M173.36 227.479C174.09 227.668 176.571 227.128 176.615 226.924C176.673 226.72 174.79 225.012 174.061 224.822C173.331 224.632 172.572 225.07 172.382 225.8C172.192 226.53 172.63 227.289 173.36 227.479Z" fill="white"/>
<path d="M176.879 227.269C177.075 227.114 177.108 226.829 176.952 226.634C176.797 226.438 176.513 226.405 176.317 226.56C176.121 226.715 176.088 227 176.243 227.196C176.399 227.392 176.683 227.424 176.879 227.269Z" fill="#949D9F"/>
<path d="M155.088 240.701C163.203 233.126 175.099 227.492 175.23 227.434L175.303 227.58C175.187 227.638 163.305 233.257 155.205 240.818L155.088 240.701Z" fill="#949D9F"/>
<path d="M129.192 180.392C129.192 180.392 117.603 175.78 109.079 177.824C100.57 179.852 82.4706 193.456 76.2527 200.914L81.9014 206.753C81.9014 206.753 98.7013 193.529 103.722 195.091C103.722 195.091 96.5411 221.626 95.461 232.442C95.461 232.442 116.071 238.966 132.841 235.419C132.841 235.419 133.206 207.088 134.753 206.943C136.301 206.811 141.57 221.947 156.224 233.347L162.603 227.348C162.603 227.348 147.627 211.219 144.299 201.163C141.001 191.077 139.103 182.815 129.192 180.392Z" fill="#1C5750"/>
<path d="M139.249 171.721C139.249 171.721 140.315 171.094 140.621 171.707C141.38 173.268 139.541 173.896 138.593 173.779L139.249 171.721Z" fill="#FF7863"/>
<path d="M141.191 168.452C141.234 168.35 141.293 168.262 141.336 168.16C143.453 163.825 141.497 158.556 136.958 156.688C133.177 155.141 128.755 156.586 126.624 160.074C125.836 161.373 125.441 162.774 125.398 164.161C125.237 166.263 125.106 168.073 125.15 169.649C125.208 172.247 123.529 176.144 121.997 178.261C125.5 184.522 129.193 180.392 129.193 180.392L130.054 178.786C130.273 178.363 130.798 178.173 131.236 178.363C131.236 178.363 131.236 178.363 131.251 178.363C137.177 180.786 139.921 171.036 141.191 168.452Z" fill="#FF9D82"/>
<path d="M131.485 168.598C131.674 168.204 131.514 167.737 131.12 167.547C130.726 167.358 130.259 167.518 130.069 167.912C129.879 168.306 130.04 168.773 130.434 168.963C130.813 169.153 131.295 168.992 131.485 168.598Z" fill="#21272C"/>
<path d="M138.33 170.408C138.52 170.014 138.359 169.547 137.965 169.357C137.571 169.168 137.104 169.328 136.914 169.722C136.724 170.116 136.885 170.583 137.279 170.773C137.673 170.963 138.14 170.802 138.33 170.408Z" fill="#21272C"/>
<path d="M129.791 166.993C129.703 166.993 129.63 166.979 129.557 166.935C129.338 166.818 129.251 166.526 129.382 166.307C129.747 165.636 130.915 164.585 132.695 165.402C132.929 165.504 133.031 165.782 132.914 166.015C132.812 166.249 132.535 166.351 132.301 166.249C130.842 165.577 130.199 166.716 130.17 166.76C130.097 166.906 129.951 166.993 129.791 166.993Z" fill="#21272C"/>
<path d="M136.68 167.665C136.636 167.606 136.592 167.519 136.592 167.431C136.563 167.183 136.753 166.949 137.001 166.935C137.76 166.847 139.293 167.212 139.643 169.139C139.687 169.387 139.526 169.62 139.278 169.679C139.03 169.723 138.796 169.562 138.738 169.314C138.446 167.737 137.147 167.854 137.089 167.854C136.928 167.869 136.782 167.796 136.68 167.665Z" fill="#21272C"/>
<path d="M125.31 160.964L124.858 167.065L126.361 167.46L130.404 161.285L125.31 160.964Z" fill="#2A3036"/>
<path d="M126.653 167.416C126.653 167.109 126.536 166.817 126.332 166.599C125.908 166.131 125.105 165.46 124.171 165.781C122.785 166.248 123.456 169.62 125.894 169.299C125.894 169.284 126.667 169.021 126.653 167.416Z" fill="#FF9D82"/>
<path d="M133.834 172.918C133.002 172.918 132.579 172.262 132.579 172.247C132.535 172.189 132.55 172.101 132.623 172.057C132.681 172.013 132.768 172.028 132.812 172.101C132.827 172.13 133.309 172.86 134.272 172.568C134.432 172.524 134.52 172.466 134.564 172.408C134.608 172.32 134.564 172.174 134.491 171.955C134.345 171.459 134.082 170.612 134.564 169.226C134.593 169.153 134.666 169.109 134.739 169.138C134.812 169.167 134.856 169.24 134.827 169.313C134.389 170.612 134.608 171.371 134.768 171.868C134.856 172.145 134.914 172.349 134.812 172.524C134.739 172.656 134.608 172.743 134.359 172.816C134.17 172.889 133.995 172.918 133.834 172.918Z" fill="#FF7863"/>
<path d="M141.409 164.92C141.409 164.92 142.125 166.204 140.14 170.919C140.14 170.919 143 166 142.708 165.153C142.431 164.321 141.409 164.92 141.409 164.92Z" fill="#2A3036"/>
<path d="M175.055 223.932C174.209 223.815 171.873 222.166 171.917 221.918C171.946 221.67 174.647 220.736 175.493 220.852C176.34 220.969 176.938 221.757 176.807 222.604C176.705 223.465 175.917 224.049 175.055 223.932Z" fill="#949D9F"/>
<path d="M174.691 219.291C174.399 220.094 172.297 222.035 172.078 221.947C171.844 221.86 171.48 219.028 171.771 218.225C172.063 217.423 172.954 216.999 173.757 217.291C174.574 217.598 174.983 218.488 174.691 219.291Z" fill="#949D9F"/>
<path d="M170.516 218.386C171.158 218.955 172.195 221.611 172.034 221.801C171.874 221.991 169.1 221.29 168.458 220.721C167.816 220.152 167.758 219.174 168.327 218.532C168.881 217.875 169.874 217.816 170.516 218.386Z" fill="#949D9F"/>
<path d="M168.429 222.006C169.188 221.611 172.034 221.582 172.151 221.801C172.268 222.02 170.633 224.355 169.874 224.764C169.115 225.158 168.181 224.881 167.772 224.122C167.364 223.363 167.67 222.414 168.429 222.006Z" fill="#949D9F"/>
<path d="M170.91 225.45C170.823 224.589 171.874 221.947 172.122 221.918C172.37 221.889 173.917 224.282 174.005 225.143C174.092 226.005 173.465 226.764 172.618 226.837C171.757 226.924 170.998 226.297 170.91 225.45Z" fill="#949D9F"/>
<path d="M172.476 222.296C172.684 222.106 172.699 221.782 172.509 221.574C172.319 221.366 171.995 221.351 171.787 221.541C171.579 221.732 171.564 222.055 171.754 222.263C171.944 222.471 172.268 222.486 172.476 222.296Z" fill="#949D9F"/>
<path d="M152.884 243.417C162.78 235.754 171.216 223.508 171.289 223.377L171.143 223.275C171.056 223.392 162.649 235.623 152.767 243.271L152.884 243.417Z" fill="#949D9F"/>
<path d="M167.916 226.968C167.916 227.522 167.113 229.157 166.953 229.157C166.792 229.157 165.931 227.552 165.931 226.997C165.931 226.442 166.369 225.99 166.909 225.99C167.449 225.99 167.901 226.428 167.916 226.968Z" fill="#949D9F"/>
<path d="M167.537 232.587C166.866 232.631 164.837 231.741 164.823 231.551C164.808 231.361 166.72 230.223 167.377 230.179C168.048 230.135 168.617 230.646 168.661 231.303C168.705 231.974 168.209 232.543 167.537 232.587Z" fill="#949D9F"/>
<path d="M125.617 159.052C126.157 157.928 127.076 157.038 128.025 156.25C127.441 156.118 126.814 155.943 126.493 155.447C126.172 154.95 126.493 154.075 127.091 154.162C127.427 154.206 127.66 154.542 127.967 154.702C128.667 155.067 129.47 154.483 129.966 153.856C130.448 153.243 130.959 152.484 131.733 152.411C131.981 152.382 132.229 152.44 132.448 152.557C132.316 153.476 131.864 154.337 131.193 154.965C132.448 154.206 133.878 153.71 135.338 153.505C136.476 153.345 137.732 153.403 138.622 154.118C138.534 155.023 137.016 154.921 136.535 155.695C138.534 155.899 140.505 156.41 142.344 157.213C142.826 157.417 143.293 157.651 143.657 158.016C144.022 158.395 144.241 158.935 144.11 159.431C143.935 160.088 143.103 160.482 142.49 160.19C143.263 160.964 144.052 161.752 144.592 162.686C145.146 163.635 145.438 164.774 145.175 165.839C144.489 165.606 143.862 165.182 143.38 164.628C143.658 165.168 143.803 165.868 143.395 166.321C143.103 166.656 142.592 166.715 142.154 166.583C141.731 166.452 141.366 166.175 141.016 165.912C139.235 164.54 137.454 163.168 135.688 161.781C136.17 162.92 136.36 164.175 136.228 165.401C134.477 164.525 133.002 163.124 132.025 161.431C131.543 162.234 130.944 162.964 130.273 163.606C130.171 163.708 130.054 163.81 129.908 163.825C129.426 163.898 129.31 163.183 129.047 162.759C128.726 162.248 128.011 162.161 127.412 162.263C126.39 162.424 125.544 162.891 125.252 161.635C125.033 160.789 125.252 159.826 125.617 159.052Z" fill="#21272C"/>
<path d="M166.573 234.688C166.573 234.688 163.989 232.178 163.595 232.499C163.201 232.82 164.763 235.214 164.719 235.185C164.69 235.156 162.647 232.922 161.975 233.171C161.304 233.404 163.216 236.09 163.216 236.09C163.216 236.09 161.45 233.857 161.012 234.046C160.559 234.236 162.004 236.557 161.844 236.659C161.683 236.761 160.589 234.674 160.019 234.878C159.45 235.083 160.88 238.089 161.566 238.162C162.252 238.235 162.471 237.578 162.471 237.578C162.471 237.578 163.624 237.578 163.902 237.009C163.902 237.009 165.391 236.455 165.274 235.754C165.259 235.754 166.646 235.842 166.573 234.688Z" fill="#FF9D82"/>
<path d="M134.141 174.67C132.871 173.852 131.134 174.349 131.105 174.363C131.046 174.378 131.017 174.436 131.046 174.48C131.061 174.538 131.119 174.568 131.163 174.538C131.28 174.509 133.98 173.721 134.929 175.925C134.943 175.969 135.002 175.998 135.06 175.983C135.104 175.969 135.133 175.91 135.119 175.852C134.885 175.297 134.535 174.918 134.141 174.67Z" fill="#2A3036"/>
<path d="M246.994 95.8778C245.13 79.9035 225.953 86.5403 225.953 86.5403L223.063 89.0526L225.513 90.5391L218.227 98.0133L221.116 99.751L213.328 107.435L213.684 108.314L208.178 115.956C208.22 115.914 248.857 111.852 246.994 95.8778Z" fill="#7BD7A1"/>
<path d="M209.329 106.346L215.422 97.281L212.261 96.1504L217.892 87.3781L215.192 86.415L217.516 83.3793C217.516 83.3793 210.523 64.3273 196.977 72.9949C183.431 81.6625 206.001 115.705 206.001 115.705L209.874 107.121L209.329 106.346Z" fill="#7BD7A1"/>
<path d="M107.39 330.091C107.39 330.091 157.574 289.726 67.3393 224.091C67.3393 224.091 32.5014 327.265 107.39 330.091Z" fill="#444A54"/>
<path d="M67.3395 224.091L107.39 330.091C107.39 330.091 35.6211 337.314 67.3395 224.091Z" fill="#444A54"/>
<path d="M104.377 330.553C104.377 330.553 114.699 271.345 0.407776 272.413C0.428712 272.413 45.316 370.792 104.377 330.553Z" fill="#515764"/>
<path d="M0.218292 272.287L104.376 330.552C105.821 306.769 89.1345 271.47 0.218292 272.287Z" fill="#656C74"/>
<path d="M104.166 330.573C104.124 330.573 104.083 330.573 104.041 330.552L0.113287 272.538C0.0086062 272.475 -0.0332682 272.349 0.0295405 272.245C0.0923492 272.14 0.217968 272.098 0.32265 272.161L104.25 330.175C104.355 330.238 104.397 330.364 104.334 330.468C104.313 330.51 104.25 330.552 104.166 330.573Z" fill="#060633"/>
<path d="M20.5265 301.053C20.4218 301.032 20.359 300.969 20.359 300.864C20.359 300.76 20.4427 300.676 20.5683 300.676L52.0146 300.969C52.1192 300.969 52.2239 301.053 52.2239 301.157C52.2239 301.262 52.1402 301.346 52.0146 301.346L20.5683 301.053C20.5474 301.053 20.5265 301.053 20.5265 301.053Z" fill="#060633"/>
<path d="M80.9683 317.76C80.9055 317.76 80.8427 317.718 80.8008 317.656L69.5162 291.695C69.4743 291.611 69.5162 291.485 69.6209 291.464C69.7255 291.422 69.8512 291.464 69.893 291.569L81.1777 317.53C81.2195 317.614 81.1777 317.739 81.073 317.76C81.0311 317.76 80.9892 317.76 80.9683 317.76Z" fill="#060633"/>
</svg>
