<svg width="18" height="18" viewBox="0 0 18 18" fill="none" xmlns="http://www.w3.org/2000/svg">
<mask id="mask0_3950_8661" style="mask-type:alpha" maskUnits="userSpaceOnUse" x="0" y="0" width="18" height="18">
<rect width="18" height="18" fill="#D9D9D9"/>
</mask>
<g mask="url(#mask0_3950_8661)">
<path d="M3 9.75V11.25H15V9.75H3ZM3 1.5H15C15.4125 1.5 15.7657 1.64675 16.0597 1.94025C16.3533 2.23425 16.5 2.5875 16.5 3V11.25C16.5 11.6625 16.3533 12.0157 16.0597 12.3097C15.7657 12.6033 15.4125 12.75 15 12.75H12V16.5L9 15L6 16.5V12.75H3C2.5875 12.75 2.2345 12.6033 1.941 12.3097C1.647 12.0157 1.5 11.6625 1.5 11.25V3C1.5 2.5875 1.647 2.23425 1.941 1.94025C2.2345 1.64675 2.5875 1.5 3 1.5ZM3 7.5H15V3H3V7.5Z" fill="white"/>
</g>
</svg>
