<svg width="1920" height="1080" viewBox="0 0 1920 1080" fill="none" xmlns="http://www.w3.org/2000/svg">
<path fill-rule="evenodd" clip-rule="evenodd" d="M553.657 1080H564L0 516V526.343L553.657 1080ZM0 532V542.343L537.657 1080H548L0 532ZM0 558.343V548L532 1080H521.657L0 558.343ZM0 564V574.343L505.657 1080H516L0 564ZM0 590.343V580L500 1080H489.657L0 590.343ZM0 596V606.343L473.657 1080H484L0 596ZM0 622.343V612L468 1080H457.657L0 622.343ZM0 628V638.343L441.657 1080H452L0 628ZM0 654.343V644L436 1080H425.657L0 654.343ZM0 660V670.343L409.657 1080H420L0 660ZM0 686.343V676L404 1080H393.657L0 686.343ZM0 692V702.343L377.657 1080H388L0 692ZM0 718.343V708L372 1080H361.657L0 718.343ZM0 724V734.343L345.657 1080H356L0 724ZM0 750.343V740L340 1080H329.657L0 750.343ZM0 756V766.343L313.657 1080H324L0 756ZM0 782.343V772L308 1080H297.657L0 782.343ZM0 788V798.343L281.657 1080H292L0 788ZM0 814.343V804L276 1080H265.657L0 814.343ZM0 820V830.343L249.657 1080H260L0 820ZM0 846.343V836L244 1080H233.657L0 846.343ZM0 852V862.343L217.657 1080H228L0 852ZM0 878.343V868L212 1080H201.657L0 878.343ZM0 884V894.343L185.657 1080H196L0 884ZM0 910.343V900L180 1080H169.657L0 910.343ZM0 916V926.343L153.657 1080H164L0 916ZM0 942.343V932L148 1080H137.657L0 942.343ZM0 948V958.343L121.657 1080H132L0 948ZM0 974.343V964L116 1080H105.657L0 974.343ZM0 980V990.343L89.6566 1080H99.9997L0 980ZM0 1006.34V996L83.9997 1080H73.6566L0 1006.34ZM0 1012V1022.34L57.6566 1080H67.9997L0 1012ZM0 1038.34V1028L51.9997 1080H41.6566L0 1038.34ZM0 1044V1054.34L25.6566 1080H35.9997L0 1044ZM0 1070.34V1060L19.9997 1080H9.6566L0 1070.34ZM0 1076V1080H3.99968L0 1076ZM252 0H241.657L1321.66 1080H1332L252 0ZM1920 0V0.530944L1919.47 0H1920ZM1903.34 0H1913.81L1920 6.18774V16.6638L1903.34 0ZM1897.68 0H1887.2L1920 32.7966V22.3206L1897.68 0ZM1871.07 0H1881.55L1920 38.4534V48.9294L1871.07 0ZM1865.41 0H1854.94L1920 65.0622V54.5862L1865.41 0ZM1838.81 0H1849.28L1920 70.719V81.195L1838.81 0ZM1833.15 0H1822.67L1920 97.3278V86.8518L1833.15 0ZM1806.54 0H1817.02L1920 102.985V113.461L1806.54 0ZM1800.88 0H1790.41L1920 129.593V119.117L1800.88 0ZM1774.27 0H1784.75L1920 135.25V145.726L1774.27 0ZM1768.62 0H1758.14L1920 161.859V151.383L1768.62 0ZM1742.01 0H1752.48L1920 167.516V177.992L1742.01 0ZM1736.35 0H1725.88L1920 194.125V183.649L1736.35 0ZM1709.74 0H1720.22L1920 199.781V210.257L1709.74 0ZM1704.09 0H1693.61L1920 226.39V215.914L1704.09 0ZM1677.48 0H1687.95L1920 232.047V242.523L1677.48 0ZM1671.82 0H1661.34L1920 258.656V248.18L1671.82 0ZM1645.21 0H1655.69L1920 264.313V274.789L1645.21 0ZM1639.55 0H1629.08L1920 290.922V280.446L1639.55 0ZM1612.95 0H1623.42L1920 296.578V307.054L1612.95 0ZM1607.29 0H1596.81L1920 323.187V312.711L1607.29 0ZM1580.68 0H1591.16L1920 328.844V339.32L1580.68 0ZM1575.02 0H1564.55L1920 355.453V344.977L1575.02 0ZM1548.41 0H1558.89L1920 361.11V371.586L1548.41 0ZM1542.76 0H1532.28L1920 387.718V377.242L1542.76 0ZM1516.15 0H1526.62L1920 393.375V403.851L1516.15 0ZM1510.49 0H1500.02L1920 419.984V409.508L1510.49 0ZM1483.88 0H1494.36L1920 425.641V436.117L1483.88 0ZM1478.23 0H1467.75L1920 452.25V441.774L1478.23 0ZM1451.62 0H1462.09L1920 457.906V468.382L1451.62 0ZM1445.96 0H1435.48L1920 484.515V474.039L1445.96 0ZM1419.35 0H1429.83L1920 490.172V500.648L1419.35 0ZM1413.7 0H1403.22L1920 516.781V506.305L1413.7 0ZM1387.09 0H1397.56L1920 522.438V532.914L1387.09 0ZM1381.43 0H1370.95L1920 549.047V538.571L1381.43 0ZM1354.82 0H1365.3L1920 554.703V565.179L1354.82 0ZM1349.16 0H1338.69L1920 581.312V570.836L1349.16 0ZM1322.56 0H1333.03L1920 586.969V597.445L1322.56 0ZM1316.9 0H1306.42L1920 613.578V603.102L1316.9 0ZM1290.29 0H1300.77L1920 619.235V629.711L1290.29 0ZM1284.63 0H1274.16L1920 645.843V635.367L1284.63 0ZM1258.02 0H1268.5L1920 651.5V661.976L1258.02 0ZM1252.37 0H1241.89L1920 678.109V667.633L1252.37 0ZM1225.76 0H1236.23L1920 683.766V694.242L1225.76 0ZM1220.1 0H1209.63L1920 710.375V699.899L1220.1 0ZM1193.49 0H1203.97L1920 716.031V726.507L1193.49 0ZM1187.84 0H1177.36L1920 742.64V732.164L1187.84 0ZM1161.23 0H1171.7L1920 748.297V758.773L1161.23 0ZM1155.57 0H1145.09L1920 774.906V764.43L1155.57 0ZM1128.96 0H1139.44L1920 780.563V791.039L1128.96 0ZM1123.3 0H1112.83L1920 807.172V796.696L1123.3 0ZM1096.7 0H1107.17L1920 812.828V823.304L1096.7 0ZM1091.04 0H1080.56L1920 839.437V828.961L1091.04 0ZM1064.43 0H1074.91L1920 845.094V855.57L1064.43 0ZM1058.77 0H1048.3L1920 871.703V861.227L1058.77 0ZM1032.16 0H1042.64L1920 877.36V887.836L1032.16 0ZM1026.51 0H1016.03L1920 903.968V893.492L1026.51 0ZM999.899 0H1010.37L1920 909.625V920.101L999.899 0ZM994.242 0H983.766L1920 936.234V925.758L994.242 0ZM967.633 0H978.109L1920 941.891V952.367L967.633 0ZM961.976 0H951.5L1920 968.5V958.024L961.976 0ZM935.367 0H945.843L1920 974.156V984.632L935.367 0ZM929.711 0H919.235L1920 1000.77V990.289L929.711 0ZM903.102 0H913.578L1920 1006.42V1016.9L903.102 0ZM897.445 0H886.969L1920 1033.03V1022.56L897.445 0ZM870.836 0H881.312L1920 1038.69V1049.16L870.836 0ZM865.179 0H854.703L1920 1065.3V1054.82L865.179 0ZM838.571 0H849.047L1920 1070.95V1080H1918.57L838.571 0ZM832.914 0H822.438L1902.44 1080H1912.91L832.914 0ZM806.305 0H816.781L1896.78 1080H1886.31L806.305 0ZM800.648 0H790.172L1870.17 1080H1880.65L800.648 0ZM774.039 0H784.515L1864.52 1080H1854.04L774.039 0ZM768.383 0H757.907L1837.91 1080H1848.38L768.383 0ZM741.774 0H752.25L1832.25 1080H1821.77L741.774 0ZM736.117 0H725.641L1805.64 1080H1816.12L736.117 0ZM709.508 0H719.984L1799.98 1080H1789.51L709.508 0ZM703.851 0H693.375L1773.38 1080H1783.85L703.851 0ZM677.242 0H687.718L1767.72 1080H1757.24L677.242 0ZM671.586 0H661.11L1741.11 1080H1751.59L671.586 0ZM644.977 0H655.453L1735.45 1080H1724.98L644.977 0ZM639.32 0H628.844L1708.84 1080H1719.32L639.32 0ZM612.711 0H623.187L1703.19 1080H1692.71L612.711 0ZM607.054 0H596.578L1676.58 1080H1687.05L607.054 0ZM580.446 0H590.922L1670.92 1080H1660.45L580.446 0ZM574.789 0H564.313L1644.31 1080H1654.79L574.789 0ZM548.18 0H558.656L1638.66 1080H1628.18L548.18 0ZM542.523 0H532.047L1612.05 1080H1622.52L542.523 0ZM515.914 0H526.39L1606.39 1080H1595.91L515.914 0ZM510.258 0H499.782L1579.78 1080H1590.26L510.258 0ZM483.649 0H494.125L1574.12 1080H1563.65L483.649 0ZM477.992 0H467.516L1547.52 1080H1557.99L477.992 0ZM451.383 0H461.859L1541.86 1080H1531.38L451.383 0ZM445.726 0H435.25L1515.25 1080H1525.73L445.726 0ZM419.117 0H429.593L1509.59 1080H1499.12L419.117 0ZM413.461 0H402.985L1482.98 1080H1493.46L413.461 0ZM386.852 0H397.328L1477.33 1080H1466.85L386.852 0ZM381.195 0H370.719L1450.72 1080H1461.19L381.195 0ZM354.586 0H365.062L1445.06 1080H1434.59L354.586 0ZM348.929 0H338.453L1418.45 1080H1428.93L348.929 0ZM322.321 0H332.797L1412.8 1080H1402.32L322.321 0ZM316.664 0H306.188L1386.19 1080H1396.66L316.664 0ZM290.055 0H300.531L1380.53 1080H1370.06L290.055 0ZM284.398 0H273.922L1353.92 1080H1364.4L284.398 0ZM257.789 0H268.265L1348.27 1080H1337.79L257.789 0ZM225.657 0H236L1316 1080H1305.66L225.657 0ZM220 0H209.657L1289.66 1080H1300L220 0ZM193.657 0H204L1284 1080H1273.66L193.657 0ZM188 0H177.657L1257.66 1080H1268L188 0ZM161.657 0H172L1252 1080H1241.66L161.657 0ZM156 0H145.657L1225.66 1080H1236L156 0ZM129.657 0H140L1220 1080H1209.66L129.657 0ZM124 0H113.657L1193.66 1080H1204L124 0ZM97.6566 0H108L1188 1080H1177.66L97.6566 0ZM91.9997 0H81.6566L1161.66 1080H1172L91.9997 0ZM65.6566 0H75.9997L1156 1080H1145.66L65.6566 0ZM59.9997 0H49.6566L1129.66 1080H1140L59.9997 0ZM33.6566 0H43.9997L1124 1080H1113.66L33.6566 0ZM27.9997 0H17.6566L1097.66 1080H1108L27.9997 0ZM1.65656 0H11.9997L1092 1080H1081.66L1.65656 0ZM0 4.0003V14.3434L1065.66 1080H1076L0 4.0003ZM0 30.3434V20.0003L1060 1080H1049.66L0 30.3434ZM0 36.0003V46.3434L1033.66 1080H1044L0 36.0003ZM0 62.3434V52.0003L1028 1080H1017.66L0 62.3434ZM0 68.0003V78.3434L1001.66 1080H1012L0 68.0003ZM0 94.3434V84.0003L996 1080H985.657L0 94.3434ZM0 100V110.343L969.657 1080H980L0 100ZM0 126.343V116L964 1080H953.657L0 126.343ZM0 132V142.343L937.657 1080H948L0 132ZM0 158.343V148L932 1080H921.657L0 158.343ZM0 164V174.343L905.657 1080H916L0 164ZM0 190.343V180L900 1080H889.657L0 190.343ZM0 196V206.343L873.657 1080H884L0 196ZM0 222.343V212L868 1080H857.657L0 222.343ZM0 228V238.343L841.657 1080H852L0 228ZM0 254.343V244L836 1080H825.657L0 254.343ZM0 260V270.343L809.657 1080H820L0 260ZM0 286.343V276L804 1080H793.657L0 286.343ZM0 292V302.343L777.657 1080H788L0 292ZM0 318.343V308L772 1080H761.657L0 318.343ZM0 324V334.343L745.657 1080H756L0 324ZM0 350.343V340L740 1080H729.657L0 350.343ZM0 356V366.343L713.657 1080H724L0 356ZM0 382.343V372L708 1080H697.657L0 382.343ZM0 388V398.343L681.657 1080H692L0 388ZM0 414.343V404L676 1080H665.657L0 414.343ZM0 420V430.343L649.657 1080H660L0 420ZM0 446.343V436L644 1080H633.657L0 446.343ZM0 452V462.343L617.657 1080H628L0 452ZM0 478.343V468L612 1080H601.657L0 478.343ZM0 484V494.343L585.657 1080H596L0 484ZM0 510.343V500L580 1080H569.657L0 510.343Z" fill="black" fill-opacity="0.7"/>
</svg>
