<svg width="22" height="22" viewBox="0 0 22 22" fill="none" xmlns="http://www.w3.org/2000/svg">
<mask id="mask0_4311_66338" style="mask-type:alpha" maskUnits="userSpaceOnUse" x="0" y="0" width="22" height="22">
<rect width="22" height="22" fill="#D9D9D9"/>
</mask>
<g mask="url(#mask0_4311_66338)">
<path d="M14.1837 15.1509L15.1496 14.185L11.6875 10.7225V6.41795H10.3125V11.2798L14.1837 15.1509ZM11.0015 19.7096C9.79708 19.7096 8.66497 19.481 7.60518 19.0239C6.54537 18.5668 5.6235 17.9465 4.83955 17.1629C4.05558 16.3793 3.43495 15.4578 2.97764 14.3984C2.52033 13.3391 2.29167 12.2073 2.29167 11.0028C2.29167 9.79838 2.52023 8.66626 2.97734 7.60647C3.43445 6.54667 4.0548 5.62479 4.8384 4.84084C5.62201 4.05688 6.54349 3.43624 7.60282 2.97893C8.66213 2.52162 9.79401 2.29297 10.9984 2.29297C12.2029 2.29297 13.335 2.52152 14.3948 2.97864C15.4546 3.43575 16.3765 4.0561 17.1604 4.8397C17.9444 5.62331 18.565 6.54478 19.0223 7.60411C19.4796 8.66343 19.7083 9.79531 19.7083 10.9997C19.7083 12.2042 19.4797 13.3363 19.0226 14.3961C18.5655 15.4559 17.9452 16.3778 17.1616 17.1617C16.378 17.9457 15.4565 18.5663 14.3972 19.0236C13.3378 19.4809 12.206 19.7096 11.0015 19.7096ZM11 18.3346C13.0319 18.3346 14.7621 17.6204 16.1906 16.1919C17.6191 14.7634 18.3333 13.0332 18.3333 11.0013C18.3333 8.96934 17.6191 7.23913 16.1906 5.81065C14.7621 4.38218 13.0319 3.66795 11 3.66795C8.96804 3.66795 7.23783 4.38218 5.80936 5.81065C4.38089 7.23913 3.66665 8.96934 3.66665 11.0013C3.66665 13.0332 4.38089 14.7634 5.80936 16.1919C7.23783 17.6204 8.96804 18.3346 11 18.3346Z" fill="#979EAA"/>
</g>
</svg>
