<svg width="35" height="34" viewBox="0 0 35 34" fill="none" xmlns="http://www.w3.org/2000/svg">
<path d="M15.7938 27.5535V19.5139L17.8125 13.5639C17.8597 13.3987 17.9542 13.257 18.0958 13.1389C18.2375 13.0209 18.4382 12.9618 18.6979 12.9618H29.4292C29.6889 12.9618 29.8837 13.015 30.0135 13.1212C30.1434 13.2275 30.2438 13.375 30.3146 13.5639L32.3333 19.5139V27.5535C32.3333 27.766 32.2566 27.949 32.1031 28.1025C31.9497 28.2559 31.7667 28.3327 31.5542 28.3327H30.775C30.5625 28.3327 30.3795 28.2559 30.226 28.1025C30.0726 27.949 29.9958 27.766 29.9958 27.5535V25.9598H18.1313V27.5535C18.1313 27.766 18.0545 27.949 17.901 28.1025C17.7476 28.2559 17.5646 28.3327 17.3521 28.3327H16.5729C16.3604 28.3327 16.1774 28.2559 16.024 28.1025C15.8705 27.949 15.7938 27.766 15.7938 27.5535ZM17.6708 18.4514H30.4563L29.1104 14.3785H19.0167L17.6708 18.4514ZM17.2104 19.8681V24.5431V19.8681ZM19.5833 23.6223C19.9847 23.6223 20.3153 23.4924 20.575 23.2327C20.8347 22.973 20.9646 22.6424 20.9646 22.241C20.9646 21.8396 20.8347 21.5091 20.575 21.2493C20.3153 20.9896 19.9847 20.8598 19.5833 20.8598C19.1819 20.8598 18.8514 20.9896 18.5917 21.2493C18.3319 21.5091 18.2021 21.8396 18.2021 22.241C18.2021 22.6424 18.3319 22.973 18.5917 23.2327C18.8514 23.4924 19.1819 23.6223 19.5833 23.6223ZM28.5438 23.6223C28.9451 23.6223 29.2757 23.4924 29.5354 23.2327C29.7951 22.973 29.925 22.6424 29.925 22.241C29.925 21.8396 29.7951 21.5091 29.5354 21.2493C29.2757 20.9896 28.9451 20.8598 28.5438 20.8598C28.1424 20.8598 27.8118 20.9896 27.5521 21.2493C27.2924 21.5091 27.1625 21.8396 27.1625 22.241C27.1625 22.6424 27.2924 22.973 27.5521 23.2327C27.8118 23.4924 28.1424 23.6223 28.5438 23.6223ZM6.975 28.3327V27.5889L8.99375 25.5702C7.64792 25.5702 6.47917 25.1629 5.4875 24.3483C4.49583 23.5337 4 22.4889 4 21.2139V9.59727C4 8.03893 4.61389 6.99414 5.84167 6.46289C7.06944 5.93164 9.50139 5.66602 13.1375 5.66602C16.5139 5.66602 18.8809 5.95525 20.2385 6.53372C21.5962 7.1122 22.275 8.13338 22.275 9.59727V11.8993H20.15V9.17227H6.125V18.6993H14.7313V28.3327H6.975ZM7.93125 22.5952C8.33264 22.5952 8.66319 22.4653 8.92292 22.2056C9.18264 21.9459 9.3125 21.6153 9.3125 21.2139C9.3125 20.8125 9.18264 20.482 8.92292 20.2223C8.66319 19.9625 8.33264 19.8327 7.93125 19.8327C7.52986 19.8327 7.19931 19.9625 6.93958 20.2223C6.67986 20.482 6.55 20.8125 6.55 21.2139C6.55 21.6153 6.67986 21.9459 6.93958 22.2056C7.19931 22.4653 7.52986 22.5952 7.93125 22.5952ZM17.2104 24.5431H30.9167V19.8681H17.2104V24.5431Z" fill="white"/>
</svg>
