<svg width="35" height="34" viewBox="0 0 35 34" fill="none" xmlns="http://www.w3.org/2000/svg">
<path d="M15.7938 27.554V19.5144L17.8125 13.5644C17.8597 13.3991 17.9542 13.2575 18.0958 13.1394C18.2375 13.0214 18.4382 12.9623 18.6979 12.9623H29.4292C29.6889 12.9623 29.8837 13.0155 30.0135 13.1217C30.1434 13.228 30.2438 13.3755 30.3146 13.5644L32.3333 19.5144V27.554C32.3333 27.7665 32.2566 27.9495 32.1031 28.103C31.9497 28.2564 31.7667 28.3332 31.5542 28.3332H30.775C30.5625 28.3332 30.3795 28.2564 30.226 28.103C30.0726 27.9495 29.9958 27.7665 29.9958 27.554V25.9603H18.1313V27.554C18.1313 27.7665 18.0545 27.9495 17.901 28.103C17.7476 28.2564 17.5646 28.3332 17.3521 28.3332H16.5729C16.3604 28.3332 16.1774 28.2564 16.024 28.103C15.8705 27.9495 15.7938 27.7665 15.7938 27.554V27.554ZM17.6708 18.4519H30.4563L29.1104 14.379H19.0167L17.6708 18.4519ZM17.2104 19.8686V24.5436V19.8686ZM19.5833 23.6228C19.9847 23.6228 20.3153 23.4929 20.575 23.2332C20.8347 22.9734 20.9646 22.6429 20.9646 22.2415C20.9646 21.8401 20.8347 21.5096 20.575 21.2498C20.3153 20.9901 19.9847 20.8603 19.5833 20.8603C19.1819 20.8603 18.8514 20.9901 18.5917 21.2498C18.3319 21.5096 18.2021 21.8401 18.2021 22.2415C18.2021 22.6429 18.3319 22.9734 18.5917 23.2332C18.8514 23.4929 19.1819 23.6228 19.5833 23.6228ZM28.5438 23.6228C28.9451 23.6228 29.2757 23.4929 29.5354 23.2332C29.7951 22.9734 29.925 22.6429 29.925 22.2415C29.925 21.8401 29.7951 21.5096 29.5354 21.2498C29.2757 20.9901 28.9451 20.8603 28.5438 20.8603C28.1424 20.8603 27.8118 20.9901 27.5521 21.2498C27.2924 21.5096 27.1625 21.8401 27.1625 22.2415C27.1625 22.6429 27.2924 22.9734 27.5521 23.2332C27.8118 23.4929 28.1424 23.6228 28.5438 23.6228ZM6.975 28.3332V27.5894L8.99375 25.5707C7.64792 25.5707 6.47917 25.1634 5.4875 24.3488C4.49583 23.5342 4 22.4894 4 21.2144V9.59775C4 8.03942 4.61389 6.99463 5.84167 6.46338C7.06944 5.93213 9.50139 5.6665 13.1375 5.6665C16.5139 5.6665 18.8809 5.95574 20.2385 6.53421C21.5962 7.11268 22.275 8.13387 22.275 9.59775V11.8998H20.15V9.17275H6.125V18.6998H14.7313V28.3332H6.975ZM7.93125 22.5957C8.33264 22.5957 8.66319 22.4658 8.92292 22.2061C9.18264 21.9464 9.3125 21.6158 9.3125 21.2144C9.3125 20.813 9.18264 20.4825 8.92292 20.2228C8.66319 19.963 8.33264 19.8332 7.93125 19.8332C7.52986 19.8332 7.19931 19.963 6.93958 20.2228C6.67986 20.4825 6.55 20.813 6.55 21.2144C6.55 21.6158 6.67986 21.9464 6.93958 22.2061C7.19931 22.4658 7.52986 22.5957 7.93125 22.5957ZM17.2104 24.5436H30.9167V19.8686H17.2104V24.5436Z" fill="#7BD7A1"/>
</svg>
