<svg width="11" height="4" viewBox="0 0 11 4" fill="none" xmlns="http://www.w3.org/2000/svg">
<path fill-rule="evenodd" clip-rule="evenodd" d="M4.7114 0.955206C4.90783 0.823959 5.13876 0.753906 5.375 0.753906C5.69179 0.753906 5.9956 0.879749 6.2196 1.10375C6.4436 1.32775 6.56944 1.63156 6.56944 1.94835C6.56944 2.18459 6.49939 2.41552 6.36814 2.61195C6.2369 2.80837 6.05035 2.96147 5.83209 3.05187C5.61384 3.14228 5.37368 3.16593 5.14198 3.11984C4.91028 3.07375 4.69745 2.95999 4.5304 2.79295C4.36335 2.6259 4.24959 2.41307 4.20351 2.18137C4.15742 1.94967 4.18107 1.70951 4.27148 1.49126C4.36188 1.273 4.51498 1.08645 4.7114 0.955206ZM0.530847 0.955206C0.727273 0.823959 0.958206 0.753906 1.19445 0.753906C1.51123 0.753906 1.81504 0.879749 2.03904 1.10375C2.26305 1.32775 2.38889 1.63156 2.38889 1.94835C2.38889 2.18459 2.31884 2.41552 2.18759 2.61195C2.05634 2.80837 1.8698 2.96147 1.65154 3.05187C1.43328 3.14228 1.19312 3.16593 0.96142 3.11984C0.729721 3.07375 0.516891 2.95999 0.349845 2.79295C0.182799 2.6259 0.0690394 2.41307 0.0229515 2.18137C-0.0231364 1.94967 0.000517526 1.70951 0.0909222 1.49126C0.181327 1.273 0.334422 1.08645 0.530847 0.955206ZM8.89196 0.955206C9.08838 0.823959 9.31932 0.753906 9.55556 0.753906C9.87234 0.753906 10.1762 0.879749 10.4002 1.10375C10.6242 1.32775 10.75 1.63156 10.75 1.94835C10.75 2.18459 10.6799 2.41552 10.5487 2.61195C10.4175 2.80837 10.2309 2.96147 10.0127 3.05187C9.79439 3.14228 9.55423 3.16593 9.32253 3.11984C9.09083 3.07375 8.878 2.95999 8.71096 2.79295C8.54391 2.6259 8.43015 2.41307 8.38406 2.18137C8.33797 1.94967 8.36163 1.70951 8.45203 1.49126C8.54244 1.273 8.69553 1.08645 8.89196 0.955206Z" fill="white"/>
</svg>
