<svg width="35" height="34" viewBox="0 0 35 34" fill="none" xmlns="http://www.w3.org/2000/svg">
<path fill-rule="evenodd" clip-rule="evenodd" d="M23.6087 24.406C21.949 25.7766 19.8206 26.6 17.5 26.6C12.1981 26.6 7.9 22.3019 7.9 17C7.9 14.6794 8.72342 12.551 10.094 10.8913L23.6087 24.406ZM25.2557 22.6588L11.8412 9.24432C13.428 8.08457 15.384 7.4 17.5 7.4C22.8019 7.4 27.1 11.6981 27.1 17C27.1 19.116 26.4154 21.072 25.2557 22.6588ZM29.5 17C29.5 23.6274 24.1274 29 17.5 29C10.8726 29 5.5 23.6274 5.5 17C5.5 10.3726 10.8726 5 17.5 5C24.1274 5 29.5 10.3726 29.5 17Z" fill="#7BD7A1"/>
</svg>
