<svg width="21" height="20" viewBox="0 0 21 20" fill="none" xmlns="http://www.w3.org/2000/svg">
<mask id="mask0_3365_15851" style="mask-type:alpha" maskUnits="userSpaceOnUse" x="0" y="0" width="21" height="20">
<rect x="0.5" width="20" height="20" fill="#D9D9D9"/>
</mask>
<g mask="url(#mask0_3365_15851)">
<path d="M10.5 13.333C11.5417 13.333 12.4273 12.9686 13.1567 12.2397C13.8856 11.5102 14.25 10.6247 14.25 9.58301C14.25 8.54134 13.8856 7.65579 13.1567 6.92634C12.4273 6.19745 11.5417 5.83301 10.5 5.83301C9.45837 5.83301 8.57282 6.19745 7.84337 6.92634C7.11448 7.65579 6.75004 8.54134 6.75004 9.58301C6.75004 10.6247 7.11448 11.5102 7.84337 12.2397C8.57282 12.9686 9.45837 13.333 10.5 13.333ZM10.5 11.833C9.87504 11.833 9.34393 11.6141 8.90671 11.1763C8.46893 10.7391 8.25004 10.208 8.25004 9.58301C8.25004 8.95801 8.46893 8.42662 8.90671 7.98884C9.34393 7.55162 9.87504 7.33301 10.5 7.33301C11.125 7.33301 11.6564 7.55162 12.0942 7.98884C12.5314 8.42662 12.75 8.95801 12.75 9.58301C12.75 10.208 12.5314 10.7391 12.0942 11.1763C11.6564 11.6141 11.125 11.833 10.5 11.833ZM10.5 15.833C8.47226 15.833 6.62504 15.2669 4.95837 14.1347C3.29171 13.003 2.08337 11.4858 1.33337 9.58301C2.08337 7.68023 3.29171 6.16273 4.95837 5.03051C6.62504 3.89884 8.47226 3.33301 10.5 3.33301C12.5278 3.33301 14.375 3.89884 16.0417 5.03051C17.7084 6.16273 18.9167 7.68023 19.6667 9.58301C18.9167 11.4858 17.7084 13.003 16.0417 14.1347C14.375 15.2669 12.5278 15.833 10.5 15.833ZM10.5 14.1663C12.0695 14.1663 13.5106 13.753 14.8234 12.9263C16.1356 12.1002 17.1389 10.9858 17.8334 9.58301C17.1389 8.18023 16.1356 7.06551 14.8234 6.23884C13.5106 5.41273 12.0695 4.99967 10.5 4.99967C8.9306 4.99967 7.48948 5.41273 6.17671 6.23884C4.86448 7.06551 3.86115 8.18023 3.16671 9.58301C3.86115 10.9858 4.86448 12.1002 6.17671 12.9263C7.48948 13.753 8.9306 14.1663 10.5 14.1663Z" fill="white" fill-opacity="0.7"/>
</g>
</svg>
