<svg width="21" height="20" viewBox="0 0 21 20" fill="none" xmlns="http://www.w3.org/2000/svg">
<path d="M10.4999 4.97884C13.6583 4.97884 16.4749 6.75384 17.8499 9.56217C17.3583 10.5788 16.6666 11.4538 15.8416 12.1622L17.0166 13.3372C18.1749 12.3122 19.0916 11.0288 19.6666 9.56217C18.2249 5.90384 14.6666 3.31217 10.4999 3.31217C9.44158 3.31217 8.42492 3.47884 7.46658 3.78717L8.84158 5.16217C9.38325 5.05384 9.93325 4.97884 10.4999 4.97884ZM9.60825 5.92884L11.3333 7.65384C11.8083 7.86217 12.1916 8.24551 12.3999 8.72051L14.1249 10.4455C14.1916 10.1622 14.2416 9.86217 14.2416 9.55384C14.2499 7.48717 12.5666 5.81217 10.4999 5.81217C10.1916 5.81217 9.89992 5.85384 9.60825 5.92884ZM2.17492 3.20384L4.40825 5.43717C3.04992 6.50384 1.97492 7.92051 1.33325 9.56217C2.77492 13.2205 6.33325 15.8122 10.4999 15.8122C11.7666 15.8122 12.9833 15.5705 14.0999 15.1288L16.9499 17.9788L18.1249 16.8038L3.34992 2.02051L2.17492 3.20384ZM8.42492 9.45384L10.5999 11.6288C10.5666 11.6372 10.5333 11.6455 10.4999 11.6455C9.34992 11.6455 8.41658 10.7122 8.41658 9.56217C8.41658 9.52051 8.42492 9.49551 8.42492 9.45384ZM5.59158 6.62051L7.04992 8.07884C6.85825 8.53717 6.74992 9.03717 6.74992 9.56217C6.74992 11.6288 8.43325 13.3122 10.4999 13.3122C11.0249 13.3122 11.5249 13.2038 11.9749 13.0122L12.7916 13.8288C12.0583 14.0288 11.2916 14.1455 10.4999 14.1455C7.34158 14.1455 4.52492 12.3705 3.14992 9.56217C3.73325 8.37051 4.58325 7.38717 5.59158 6.62051Z" fill="white" fill-opacity="0.7"/>
</svg>
