<svg width="78" height="78" viewBox="0 0 78 78" fill="none" xmlns="http://www.w3.org/2000/svg">
<g clip-path="url(#clip0_5718_17917)">
<g filter="url(#filter0_dd_5718_17917)">
<path d="M6.47922 62.9948C4.93425 65.6614 6.85841 69 9.9403 69H69.0597C72.1416 69 74.0658 65.6614 72.5208 62.9948L42.9611 11.9739C41.4201 9.31423 37.5799 9.31422 36.0389 11.9739L6.47922 62.9948Z" fill="#515764"/>
</g>
<path d="M43 58.6942C43 60.5199 41.5199 62 39.6942 62H39.3058C37.4801 62 36 60.5199 36 58.6942C36 56.8685 37.4801 55.3884 39.3058 55.3884H39.6942C41.5199 55.3884 43 56.8685 43 58.6942ZM43 47.9215C43 49.8545 41.433 51.4215 39.5 51.4215C37.567 51.4215 36 49.8545 36 47.9215V33.5C36 31.567 37.567 30 39.5 30C41.433 30 43 31.567 43 33.5V47.9215Z" fill="#2A3036"/>
</g>
<defs>
<filter id="filter0_dd_5718_17917" x="-4.06567" y="0.976562" width="89.1313" height="80.0234" filterUnits="userSpaceOnUse" color-interpolation-filters="sRGB">
<feFlood flood-opacity="0" result="BackgroundImageFix"/>
<feColorMatrix in="SourceAlpha" type="matrix" values="0 0 0 0 0 0 0 0 0 0 0 0 0 0 0 0 0 0 127 0" result="hardAlpha"/>
<feOffset dx="2" dy="2"/>
<feGaussianBlur stdDeviation="5"/>
<feComposite in2="hardAlpha" operator="out"/>
<feColorMatrix type="matrix" values="0 0 0 0 0 0 0 0 0 0 0 0 0 0 0 0 0 0 0.15 0"/>
<feBlend mode="normal" in2="BackgroundImageFix" result="effect1_dropShadow_5718_17917"/>
<feColorMatrix in="SourceAlpha" type="matrix" values="0 0 0 0 0 0 0 0 0 0 0 0 0 0 0 0 0 0 127 0" result="hardAlpha"/>
<feOffset dx="-4" dy="-3"/>
<feGaussianBlur stdDeviation="3"/>
<feComposite in2="hardAlpha" operator="out"/>
<feColorMatrix type="matrix" values="0 0 0 0 0 0 0 0 0 0 0 0 0 0 0 0 0 0 0.35 0"/>
<feBlend mode="normal" in2="effect1_dropShadow_5718_17917" result="effect2_dropShadow_5718_17917"/>
<feBlend mode="normal" in="SourceGraphic" in2="effect2_dropShadow_5718_17917" result="shape"/>
</filter>
<clipPath id="clip0_5718_17917">
<rect width="78" height="78" fill="white"/>
</clipPath>
</defs>
</svg>
